<?xml version="1.0" encoding="UTF-8" standalone="no"?>
<!-- Generator: Adobe Illustrator 19.2.1, SVG Export Plug-In . SVG Version: 6.00 Build 0)  -->

<svg
   version="1.1"
   id="layer"
   x="0px"
   y="0px"
   viewBox="0 0 600 136.10001"
   xml:space="preserve"
   sodipodi:docname="poly-logo.svg"
   width="600"
   height="136.10001"
   inkscape:version="1.3.2 (091e20ef0f, 2023-11-25, custom)"
   xmlns:inkscape="http://www.inkscape.org/namespaces/inkscape"
   xmlns:sodipodi="http://sodipodi.sourceforge.net/DTD/sodipodi-0.dtd"
   xmlns="http://www.w3.org/2000/svg"
   xmlns:svg="http://www.w3.org/2000/svg"><defs
   id="defs40" /><sodipodi:namedview
   id="namedview40"
   pagecolor="#ffffff"
   bordercolor="#000000"
   borderopacity="0.25"
   inkscape:showpageshadow="2"
   inkscape:pageopacity="0.0"
   inkscape:pagecheckerboard="0"
   inkscape:deskcolor="#d1d1d1"
   inkscape:zoom="1.2484663"
   inkscape:cx="300.36855"
   inkscape:cy="69.285012"
   inkscape:window-width="1280"
   inkscape:window-height="669"
   inkscape:window-x="143"
   inkscape:window-y="122"
   inkscape:window-maximized="0"
   inkscape:current-layer="layer" />
<style
   type="text/css"
   id="style1">
	.st0{fill:#C12736;}
	.st1{fill:#F7941E;}
	.st2{fill:#27AAE1;}
	.st3{fill:#8DC63F;}
</style>
<rect
   x="0"
   y="116.70001"
   class="st0"
   width="32.400002"
   height="19.4"
   id="rect1" />
<rect
   x="0"
   y="97.200012"
   width="32.400002"
   height="19.4"
   id="rect2" />
<rect
   x="0"
   y="77.799988"
   class="st1"
   width="32.400002"
   height="19.5"
   id="rect3" />
<rect
   x="0"
   y="58.299988"
   width="32.400002"
   height="19.4"
   id="rect4" />
<rect
   x="0"
   y="19.399994"
   width="32.400002"
   height="19.5"
   id="rect5" />
<rect
   x="0"
   y="0"
   class="st2"
   width="32.400002"
   height="19.4"
   id="rect6" />
<rect
   x="0"
   y="38.899994"
   class="st3"
   width="32.400002"
   height="19.5"
   id="rect7" />
<g
   id="g40"
   transform="translate(-25.4,-257.5)">
	<path
   d="m 202,294 c 3.9,0 5.3,0 6.3,-0.4 0.7,-0.2 3,-1.4 3,-5.1 0,-3.6 -1.4,-4.3 -2.5,-4.8 -1.3,-0.5 -1.9,-0.5 -6.8,-0.5 z m -8.2,-16.9 H 206 c 5.4,0 8.3,1.2 10.3,2.9 2.3,2.1 3.4,5 3.4,8.7 0,5.7 -3.2,8.4 -4.8,9.4 -2.7,1.6 -5.6,1.8 -8.4,1.9 l -4.4,0.1 v 13.8 H 194 v -36.8 z"
   id="path7" />
	<path
   d="m 234.1,301.6 c 0,3.9 0.8,6.6 4.4,6.6 4.4,0 4.4,-4.1 4.4,-6.6 v -12.8 c 0,-2.6 0,-5.7 -4.3,-5.7 -4.5,0 -4.5,4.2 -4.5,5.7 z m -8.2,-11.5 c 0,-3.8 0.7,-7.4 3.2,-10.2 2.3,-2.6 5.8,-3.5 9.2,-3.5 3.8,0 7.2,0.9 9.7,3.6 2.1,2.2 3.2,5.5 3.2,11.4 v 8.9 c 0,5.2 -0.8,8.5 -3.2,11 -3.1,3.3 -7.5,3.7 -9.8,3.7 -3.6,0 -9.5,-1.3 -11.4,-7.5 -0.8,-2.6 -0.9,-5.8 -0.9,-7.4 z"
   id="path8" />
	<polygon
   points="269.3,307.1 285.5,307.1 285.5,313.9 261.1,313.9 261.1,277.1 269.3,277.1 "
   id="polygon8" />
	<path
   d="M 297.6,313.9 V 299.3 L 286,277.1 h 8.7 l 4.7,9.2 c 0.4,0.7 1.8,3.9 2.1,4.5 h 0.2 c 0.7,-1.6 0.9,-1.8 2.1,-4.4 l 4.5,-9.3 h 8.6 l -11.1,22 v 14.8 z"
   id="path9" />
	<polygon
   points="339,283.8 339,313.9 330.5,313.9 330.5,283.8 321.2,283.8 321.2,277.1 348.1,277.1 348.1,283.8 "
   id="polygon9" />
	<polygon
   points="381.4,283.8 364.7,283.8 364.7,291.7 376.2,291.7 376.2,298.4 364.8,298.4 364.8,307.1 382.6,307.1 382.6,313.9 356.7,313.9 356.7,277.1 381.4,277.1 "
   id="polygon10" />
	<path
   d="m 390.9,289.5 c 0,-8.4 4.5,-13.2 13.1,-13.2 2.2,0 5.5,0.5 8.1,2.5 3.3,2.6 3.7,7.1 3.8,10.1 h -8.1 c 0,-1.8 -0.1,-5.8 -4.2,-5.8 -1,0 -2.3,0.4 -3.1,1.2 -1.3,1.2 -1.4,3 -1.4,4 v 14 c 0,2 0,5.9 4.5,5.9 3.3,0 4.3,-2.7 4.3,-6.7 h 8.1 c 0,2.7 -0.1,3 -0.3,4.5 -0.3,1.5 -0.8,4.1 -3.9,6.6 -2.6,2.1 -6.4,2.5 -8,2.5 -4.3,0 -7.2,-1 -9.5,-3.3 -1.5,-1.4 -3.5,-3.5 -3.5,-11.1 v -11.2 z"
   id="path10" />
	<polygon
   points="434.8,291 445.2,291 445.2,277.1 453.4,277.1 453.4,313.9 445.3,313.9 445.3,298 434.9,298 434.9,313.9 426.7,313.9 426.7,277.1 434.8,277.1 "
   id="polygon11" />
	<path
   d="m 464.5,277.1 h 7.7 l 9.5,17.2 c 0.4,0.8 0.9,1.8 1.3,2.5 0.1,0.3 0.7,1.7 0.8,1.9 h 0.3 l -0.2,-3.7 c -0.1,-2.5 -0.1,-2.8 -0.1,-4.2 v -13.7 h 7.4 v 36.8 h -6.6 L 474.8,296 c -0.8,-1.4 -0.8,-1.6 -2.8,-6.1 h -0.2 c 0,1.1 0.2,5.7 0.2,6.7 v 17.3 h -7.4 v -36.8 z"
   id="path11" />
	<polygon
   points="505.1,310.7 505.1,280.3 500.8,280.3 500.8,277.1 517.6,277.1 517.6,280.3 513.2,280.3 513.2,310.6 517.6,310.6 517.6,313.9 500.8,313.9 500.8,310.7 "
   id="polygon12" />
	<path
   d="m 537.9,297.1 c 2,0.3 2.9,0.9 3.9,2 0.2,0.3 0.4,0.5 0.7,1 V 289 c 0,-2.7 -0.2,-5.7 -4.4,-5.7 -4.4,0 -4.4,4.4 -4.4,5.7 v 12.8 c 0,4 0.8,6.6 4.4,6.6 1.6,0 2.6,-0.5 3.2,-1.4 -1.2,-1.9 -1.8,-2.4 -3.4,-2.9 z m 15.6,20.2 c -1.5,0 -2.5,0 -4.1,-0.7 -2.2,-1.1 -3.2,-2.7 -3.6,-3.8 -2.8,1.9 -6.1,2.2 -8,2.2 -3.6,0 -9.5,-1.3 -11.4,-7.5 -0.8,-2.6 -0.9,-5.8 -0.9,-7.4 v -9.9 c 0,-3.8 0.6,-7.4 3.2,-10.2 2.3,-2.6 5.8,-3.5 9.2,-3.5 3.8,0 7.2,0.9 9.7,3.6 2.1,2.2 3.2,5.5 3.2,11.4 v 8.9 c 0,3.1 -0.3,5.5 -1.1,7.4 1.3,1.7 2.2,1.7 3.7,1.7 v 7.8 z"
   id="path12" />
	<path
   d="m 562.4,277.1 h 8.4 v 24.3 c 0,2.2 0,6.8 5,6.8 1.6,0 5.2,0 5.2,-6.7 v -24.3 h 8.2 v 24.4 c 0,2.2 0,7.5 -3.8,10.6 -2.6,2.1 -5.7,2.8 -9.1,2.8 -3.9,0 -7.8,-0.9 -10.1,-3.1 -3.6,-3.4 -3.7,-7.6 -3.7,-10.9 v -23.9 z"
   id="path13" />
	<polygon
   points="624.3,283.8 607.6,283.8 607.6,291.7 619.1,291.7 619.1,298.4 607.7,298.4 607.7,307.1 625.4,307.1 625.4,313.9 599.6,313.9 599.6,277.1 624.3,277.1 "
   id="polygon13" />
	<path
   d="m 194,337.3 h 10.8 l 4.4,15.4 c 0.5,1.6 0.7,2.2 1.1,3.9 0.2,0.7 0.9,4 1.1,4.6 h 0.2 c 0.6,-3.1 1.1,-5.4 2,-8.6 l 4.3,-15.2 h 10.9 v 36.8 h -7.1 v -19.8 c 0,-2.6 0.2,-7 0.3,-10.5 h -0.2 l -7.6,30.3 h -5.6 l -7.8,-30.3 h -0.2 c 0,1.7 0.3,9.2 0.3,10.7 v 19.6 h -7 v -36.9 z"
   id="path14" />
	<path
   d="m 247,361.8 c 0,3.9 0.8,6.6 4.4,6.6 4.4,0 4.4,-4.1 4.4,-6.6 V 349 c 0,-2.6 0,-5.7 -4.3,-5.7 -4.5,0 -4.5,4.2 -4.5,5.7 z m -8.3,-11.5 c 0,-3.8 0.7,-7.4 3.2,-10.2 2.3,-2.6 5.8,-3.5 9.2,-3.5 3.8,0 7.2,0.9 9.7,3.6 2.1,2.2 3.2,5.5 3.2,11.4 v 8.9 c 0,5.2 -0.8,8.5 -3.2,11 -3.1,3.3 -7.5,3.7 -9.8,3.7 -3.6,0 -9.5,-1.3 -11.4,-7.5 -0.8,-2.6 -1,-5.8 -1,-7.4 v -10 z"
   id="path15" />
	<path
   d="m 275,337.3 h 7.7 l 9.5,17.2 c 0.4,0.8 0.9,1.8 1.3,2.5 0.2,0.3 0.7,1.7 0.8,1.9 h 0.2 l -0.2,-3.7 c -0.1,-2.5 -0.1,-2.8 -0.1,-4.2 v -13.7 h 7.4 v 36.8 H 295 l -9.8,-17.9 c -0.8,-1.5 -0.9,-1.6 -2.8,-6.1 h -0.2 c 0,1.1 0.2,5.7 0.2,6.7 v 17.3 H 275 Z"
   id="path16" />
	<polygon
   points="329.1,344 329.1,374.1 320.6,374.1 320.6,344 311.2,344 311.2,337.3 338.2,337.3 338.2,344 "
   id="polygon16" />
	<path
   d="m 355.3,353.2 c 4.6,0 5.3,0 6.4,-0.4 2.6,-0.9 2.8,-2.9 2.8,-4.9 0,-2.6 -0.8,-3.8 -2.4,-4.4 -1.2,-0.5 -2.2,-0.5 -6.8,-0.5 z m 0,20.9 h -8 v -36.8 h 11.9 c 6,0 13.5,0.8 13.5,10.7 0,4.7 -1.9,8.2 -7,9.8 l 8,16.4 H 365 l -7,-15 h -2.7 z"
   id="path17" />
	<path
   d="m 403,326.9 -7.4,7.3 h -5.1 l 4.7,-7.3 z m -20.1,10.4 h 24.7 V 344 H 391 v 7.8 h 11.5 v 6.7 h -11.4 v 8.7 h 17.8 v 6.9 H 383 v -36.8 z"
   id="path18" />
	<path
   d="m 431.8,343.9 h -0.2 l -4,16.7 h 8.3 z m 4.7,-6.6 10.6,36.8 h -7.9 l -1.9,-7.3 H 426 l -1.9,7.3 h -7.9 l 10.4,-36.8 z"
   id="path19" />
	<polygon
   points="463.5,367.3 479.7,367.3 479.7,374.1 455.3,374.1 455.3,337.3 463.5,337.3 "
   id="polygon19" />
	<path
   d="m 120.6,296.3 c 0,0 0,0 0,0 -0.2,0.2 -0.5,0.4 -0.8,0.4 0.2,0.4 0.3,0.9 0.3,1.5 0,0.6 -0.1,1.4 -0.3,1.9 0.4,0 0.8,0 0.8,0 0,0 0.4,0 0.8,0 -0.2,-0.5 -0.3,-1.4 -0.3,-1.9 0,-0.6 0.1,-1.1 0.3,-1.5 -0.3,0 -0.6,-0.2 -0.8,-0.4"
   id="path20" />
	<path
   d="m 117,293.9 c 0.7,0.4 1.3,0.8 1.7,1.6 -0.2,0.1 -0.4,0.2 -0.6,0.3 -2.1,1 -1.7,4.6 0.2,4.7 0.2,0 0.5,-0.1 0.8,-0.1 0.2,-0.4 0.4,-0.9 0.5,-1.4 -0.1,0.3 -0.4,0.4 -0.6,0.4 -0.4,0 -0.8,-0.5 -0.8,-1.1 0,-0.6 0.3,-1.1 0.8,-1.1 0.3,0 0.6,0.2 0.7,0.6 0,-0.6 -0.2,-1.1 -0.4,-1.5 0,-0.1 0,-0.1 0,-0.2 0.1,-0.1 0.1,-0.1 0.2,-0.1 0.6,0.2 1,-0.4 1.1,-0.5 0,0 0.1,-0.1 0.1,-0.1 0,0 0.1,0 0.1,0.1 0,0 0.4,0.7 1.1,0.5 0.1,0 0.1,0 0.2,0.1 0.1,0.1 0.1,0.1 0,0.2 -0.2,0.4 -0.4,0.9 -0.4,1.5 0.1,-0.3 0.4,-0.6 0.7,-0.6 0.4,0 0.8,0.5 0.8,1.1 0,0.6 -0.4,1.1 -0.8,1.1 -0.2,0 -0.5,-0.2 -0.6,-0.4 0.1,0.5 0.2,1 0.5,1.4 0.3,0 0.5,0.1 0.8,0.1 1.8,-0.1 2.3,-3.6 0.2,-4.7 -0.2,-0.1 -0.4,-0.2 -0.6,-0.3 0.4,-0.7 1.1,-1.2 1.7,-1.6 0.8,-0.5 1.4,-0.9 2,-1.8 0,-0.1 0,-0.2 -0.1,-0.2 -0.1,-0.1 -0.2,0 -0.2,0.1 -0.5,0.8 -1.2,1.2 -1.9,1.6 -0.7,0.4 -1.5,0.8 -2,1.7 -0.6,-0.2 -1,-0.4 -1.3,-0.8 0,0 0,0 -0.1,0 -0.3,0.4 -0.8,0.6 -1.3,0.8 -0.5,-0.9 -1.3,-1.3 -2,-1.7 -0.7,-0.4 -1.4,-0.8 -1.9,-1.6 -0.1,-0.1 -0.2,-0.1 -0.2,-0.1 -0.1,0 -0.1,0.2 -0.1,0.2 0.3,0.9 0.9,1.3 1.7,1.8"
   id="path21" />
	<path
   d="m 135.6,308.7 c 0.1,-0.3 0.1,-1 -0.1,-1.2 -0.5,-0.5 -1.1,-0.6 -1.1,-0.6 0,0 0.1,-0.4 -0.2,-0.7 -0.4,-0.4 -2.8,-1.8 -3.4,-1.9 -0.7,-0.2 -2.8,-0.9 -3.5,-1.1 -0.2,0 -0.6,-0.1 -1.1,-0.2 -0.2,-0.2 -0.5,-0.5 -0.7,-0.7 1.5,-1.2 2.5,-2.7 2.5,-3.1 0,-0.5 -0.2,-0.7 -0.2,-0.7 0,0 0.4,-0.2 0.3,-0.5 -0.3,-0.7 -0.3,-2.3 -0.3,-2.3 0,0 0.3,-0.3 0.8,-0.2 -0.1,-0.3 -0.4,-0.5 -0.6,-0.5 -0.2,0 -0.4,0.1 -0.5,0.3 -0.2,0.1 -0.1,0.5 -0.1,0.7 0,0.2 0,1.3 -0.1,1.7 -0.2,0.6 -0.2,0.9 0,1.2 -0.1,0.2 -2,1.9 -2.8,2.6 -0.7,-0.4 -1.6,-0.6 -3,-0.7 v 0 h -0.8 c -0.1,0 -0.1,0 -0.2,0 h -0.6 v 0 c -1.4,0 -2.2,0.2 -3,0.7 -0.9,-0.7 -2.8,-2.4 -2.8,-2.6 0.2,-0.2 0.2,-0.5 0,-1.2 -0.1,-0.4 -0.1,-1.4 -0.1,-1.7 0,-0.2 0.1,-0.6 -0.1,-0.7 -0.2,-0.1 -0.3,-0.2 -0.5,-0.3 -0.2,0 -0.5,0.1 -0.6,0.5 0.5,0 0.8,0.2 0.8,0.2 0,0 -0.1,1.5 -0.4,2.3 -0.1,0.3 0.3,0.5 0.3,0.5 0,0 -0.3,0.1 -0.2,0.7 0,0.5 1,1.9 2.5,3.1 -0.2,0.2 -0.4,0.4 -0.7,0.6 -0.5,0.1 -0.9,0.2 -1.1,0.2 -0.7,0.1 -2.8,0.8 -3.5,1.1 -0.6,0.2 -3,1.5 -3.4,1.9 -0.4,0.4 -0.2,0.7 -0.2,0.7 0,0 -0.7,0.1 -1.1,0.6 -0.3,0.3 -0.2,1 -0.1,1.2 0.1,0.2 0.4,0.2 0.4,0.2 0,0 -0.2,-1.2 0.8,-1.3 0.5,-0.1 0.9,0 0.9,0 0,0 1.4,-0.8 1.8,-1 0.4,-0.2 1.1,-1.3 1.1,-1.3 0,0 0.6,0.3 1.1,0.3 0.4,0 1.4,-0.7 2,-1.2 l -0.2,0.2 1.7,0.1 c 0.1,0 0.2,0 0.3,0 0.2,0 0.4,0 0.5,0 -1.9,2 -3.6,3.1 -5.3,4.2 -1.7,1.2 -3.4,2.2 -5.1,4.2 -1.6,1.9 -2.2,3.2 -1.8,4 0.3,0.6 1,0.8 2.1,0.8 3.3,-0.1 5.3,-0.7 6,-1.9 -0.1,0.4 -0.1,0.7 -0.1,1.2 -0.9,1.5 -1.3,2.6 -1.6,3.6 -0.2,0.6 0,0.8 0.4,1.1 -0.3,0.7 -0.3,1.4 -0.7,1.6 -1.1,0.6 -0.6,1 -0.6,1 l 1,-0.2 0.8,-2.2 c 0,0 0.2,0 0.3,-0.1 0.6,-0.4 0.1,-1.9 1.2,-4.1 0.4,0.1 0.5,-0.2 0.6,-1.2 0,-0.4 0.1,-0.9 0.2,-1.3 0.7,-0.2 1.3,-0.5 1.7,-0.8 0.1,3.5 1.2,6.1 2.1,7.7 1.1,1.8 2.4,3.1 3.2,3.1 0.8,0 2.1,-1.3 3.2,-3.1 0.9,-1.6 2,-4.2 2.1,-7.7 0.5,0.3 1,0.6 1.7,0.8 0.1,0.5 0.1,0.9 0.2,1.3 0.1,1 0.2,1.3 0.6,1.2 1.1,2.2 0.6,3.7 1.2,4.1 0.1,0.1 0.3,0.1 0.3,0.1 l 0.8,2.2 1,0.2 c 0,0 0.5,-0.4 -0.6,-1 -0.4,-0.2 -0.4,-1 -0.7,-1.6 0.4,-0.3 0.6,-0.5 0.4,-1.1 -0.3,-1 -0.7,-2.1 -1.6,-3.6 0,-0.4 -0.1,-0.8 -0.1,-1.2 0.7,1.1 2.7,1.8 6,1.9 1.1,0 1.9,-0.2 2.1,-0.8 0.4,-0.8 -0.2,-2.1 -1.8,-4 -1.7,-2 -3.3,-3.1 -5.1,-4.2 -1.7,-1.1 -3.4,-2.2 -5.3,-4.2 0.3,0 0.6,0 0.9,0 l 1.7,-0.1 -0.2,-0.2 c 0.6,0.5 1.7,1.2 2,1.2 0.5,0 1.1,-0.3 1.1,-0.3 0,0 0.7,1.2 1.1,1.3 0.4,0.2 1.8,1 1.8,1 0,0 0.4,0 0.9,0 0.9,0.1 0.8,1.3 0.8,1.3 0,0 0.5,0.1 0.6,-0.1 m -15,2.9 c 1.1,0 2.1,0 3,0.1 h 0.4 c 0,0.1 0.1,0.2 0.1,0.4 0.1,0.3 0.3,0.7 0.5,1 -2.7,0.4 -5.3,0.4 -7.9,0 0.2,-0.3 0.4,-0.7 0.5,-1 0.1,-0.1 0.1,-0.2 0.1,-0.4 l 0.4,-0.1 c 0.8,0 1.8,0 2.9,0 m -4.5,4.2 c 0,-0.5 -0.1,-1 -0.1,-1.5 2.7,0.5 6.4,0.5 9.2,0 0,0.5 0,1 -0.1,1.5 -2.9,0.5 -6.1,0.5 -9,0 m 8.8,1.4 c -0.1,0.5 -0.2,1 -0.3,1.5 -2.6,0.3 -5.4,0.3 -8,0 -0.1,-0.5 -0.2,-0.9 -0.3,-1.5 2.6,0.4 5.9,0.4 8.6,0 m -17.4,0 c 0.3,-1.1 1.2,-3.3 3.3,-5.7 0,0 0,-0.1 0,-0.1 0,0 -0.1,0 -0.1,0 -2.5,2.2 -3.6,4.7 -3.8,5.8 -0.3,0 -0.6,0 -0.8,0 -0.6,0 -1.4,0 -1.6,-0.5 0,-0.1 -0.1,-0.2 -0.1,-0.3 0,-0.5 0.3,-1.4 1.8,-3.1 1.7,-1.9 3.4,-2.8 5.1,-4 2,-1.3 3.8,-2.2 6,-4.9 0,0.4 -0.1,0.9 -0.1,1.1 0,0.5 0,0.9 0,1.4 0,0.5 0.1,0.9 0.1,1.4 0,1.1 -0.1,2.2 -0.7,3.4 -0.7,1.6 -1.5,2.9 -4.3,3.3 0.5,-1.9 1.6,-4.3 2.6,-5.6 0,0 0,-0.1 0,-0.1 0,0 -0.1,0 -0.1,0 -1.4,1.4 -2.6,3.8 -3.1,5.8 0,0 0,0 0,0.1 -0.2,1.1 -1.7,1.7 -4.2,2 m 13.1,7.5 c -0.2,0 -1.1,-0.5 -2.1,-1.9 1.3,0.1 2.9,0.1 4.1,0 -0.9,1.4 -1.8,1.9 -2,1.9 m 2.9,-3.2 c -1.9,0.1 -3.9,0.1 -5.8,0 -0.2,-0.4 -0.5,-0.9 -0.7,-1.4 2.1,0.2 4.9,0.2 7.1,0 -0.2,0.4 -0.4,0.9 -0.6,1.4 m 6.4,-12.1 c 1.7,1.1 3.4,2 5.1,4 1.5,1.7 1.8,2.6 1.8,3.1 0,0.1 0,0.2 -0.1,0.3 -0.2,0.5 -1,0.5 -1.6,0.5 -0.3,0 -0.6,0 -0.8,0 -0.3,-1.2 -1.3,-3.6 -3.8,-5.8 0,0 -0.1,0 -0.1,0 0,0 0,0.1 0,0.1 2.1,2.3 3.1,4.5 3.3,5.7 -2.5,-0.2 -4,-0.9 -4.3,-1.8 0,0 0,0 0,-0.1 -0.5,-2 -1.8,-4.5 -3.1,-5.8 0,0 -0.1,0 -0.1,0 0,0 0,0.1 0,0.1 1.1,1.2 2.1,3.6 2.7,5.5 -2.8,-0.4 -3.6,-1.7 -4.3,-3.3 -0.6,-1.3 -0.7,-2.4 -0.7,-3.4 0,-0.5 0,-0.9 0.1,-1.4 0,-0.5 0,-0.9 0,-1.4 0,-0.2 0,-0.7 -0.1,-1.1 2.3,2.6 4.1,3.5 6,4.8"
   id="path22" />
	<path
   d="m 120.6,288.5 c -12.1,0 -22,9.9 -22,22 0,12.1 9.9,22 22,22 12.1,0 22,-9.9 22,-22 0,-12.1 -9.9,-22 -22,-22 m 0,43.3 c -11.7,0 -21.3,-9.5 -21.3,-21.3 0,-11.7 9.5,-21.3 21.3,-21.3 11.7,0 21.3,9.5 21.3,21.3 0,11.7 -9.6,21.3 -21.3,21.3"
   id="path23" />
	<path
   d="m 120.2,361.4 c 0.1,0.1 0.2,0.2 0.4,0.2 0.1,0 0.3,-0.1 0.4,-0.2 l 2.4,-2.4 c 0.2,-0.2 0.2,-0.6 0,-0.8 l -2.4,-2.4 c -0.1,-0.1 -0.2,-0.1 -0.4,-0.1 -0.1,0 -0.3,0.1 -0.4,0.1 l -2.4,2.4 c -0.2,0.2 -0.2,0.6 0,0.8 z m 0.4,-5.1 2.3,2.3 -2.3,2.3 -2.3,-2.3 z"
   id="path24" />
	<path
   d="m 105.2,291 c -0.7,0.6 -1.4,1.2 -2.1,1.9 -1.6,-1.3 -2.6,-2 -2.6,-2 -0.1,-0.1 -0.2,-0.1 -0.4,-0.1 -0.2,0 -0.4,0.1 -0.5,0.2 l -1.3,1.5 c -0.2,0.3 -0.2,0.7 0,0.9 0,0 0.9,0.9 2.4,2.3 -0.6,0.8 -1.1,1.6 -1.6,2.4 -1.9,-0.8 -3.1,-1.3 -3.1,-1.3 -0.1,0 -0.2,-0.1 -0.3,-0.1 -0.2,0 -0.5,0.1 -0.6,0.4 l -0.9,1.8 c -0.2,0.3 0,0.7 0.3,0.8 0,0 1.1,0.6 2.9,1.6 -0.4,0.9 -0.7,1.8 -0.9,2.7 -2,-0.3 -3.3,-0.4 -3.3,-0.5 0,0 -0.1,0 -0.1,0 -0.3,0 -0.6,0.2 -0.6,0.5 l -0.4,2 c -0.1,0.4 0.1,0.7 0.5,0.8 0,0 1.2,0.3 3.2,0.8 -0.1,0.9 -0.2,1.8 -0.2,2.8 -2,0.2 -3.3,0.4 -3.3,0.4 -0.3,0 -0.6,0.3 -0.6,0.7 l 0.1,2 c 0,0.3 0.3,0.6 0.6,0.6 0,0 0,0 0,0 0,0 1.3,0 3.3,0 0.1,1 0.3,1.9 0.6,2.8 -1.9,0.8 -3.1,1.3 -3.1,1.3 -0.3,0.1 -0.5,0.5 -0.4,0.8 l 0.7,1.9 c 0.1,0.3 0.3,0.4 0.6,0.4 0.1,0 0.1,0 0.2,0 0,0 1.2,-0.3 3.2,-0.9 0.4,0.9 0.8,1.7 1.3,2.5 -1.6,1.2 -2.6,2 -2.6,2 -0.1,0.1 -0.2,0.2 -0.2,0.4 0,0.2 0,0.4 0.1,0.5 l 1.1,1.6 c 0.1,0.2 0.3,0.3 0.5,0.3 0.1,0 0.2,0 0.3,-0.1 0,0 1.1,-0.6 2.9,-1.7 0.6,0.7 1.2,1.4 1.9,2.1 -1.3,1.6 -2,2.6 -2,2.6 -0.2,0.3 -0.2,0.7 0.1,0.9 l 1.5,1.3 c 0.1,0.1 0.3,0.2 0.4,0.2 0.2,0 0.3,-0.1 0.5,-0.2 0,0 0.9,-0.9 2.3,-2.4 0.8,0.6 1.6,1.1 2.4,1.6 -0.8,1.9 -1.3,3.1 -1.3,3.1 -0.1,0.1 -0.1,0.3 0,0.5 0.1,0.2 0.2,0.3 0.3,0.4 l 1.8,0.9 c 0.1,0 0.2,0.1 0.3,0.1 0.2,0 0.5,-0.1 0.6,-0.3 0,0 0.6,-1.1 1.6,-2.9 0.9,0.3 1.8,0.6 2.7,0.9 -0.3,2 -0.5,3.3 -0.5,3.3 0,0.2 0,0.3 0.1,0.5 0.1,0.1 0.2,0.2 0.4,0.3 l 2,0.4 c 0,0 0.1,0 0.1,0 0.3,0 0.6,-0.2 0.6,-0.5 0,0 0.3,-1.2 0.8,-3.2 0.3,0 0.6,0.1 0.9,0.1 v 4.7 c 0,0.9 -3.2,1.3 -5.5,1.5 l -0.8,0.1 c -1.3,0.2 -2.2,0.6 -2.8,1.2 -0.5,0.6 -0.4,1.2 -0.4,1.3 h 0.1 23 0.1 c 0,-0.1 0.1,-0.7 -0.4,-1.3 -0.5,-0.7 -1.4,-1.1 -2.8,-1.2 l -0.8,-0.1 c -2.3,-0.3 -5.5,-0.6 -5.5,-1.5 V 340 l -0.9,0.1 c 0,0 -0.1,0 -0.1,0 -0.6,0 -1.1,-0.4 -1.1,-1 0,-0.1 -0.2,-1.4 -0.4,-3.3 0.2,0 0.3,0 0.5,0 0.2,2 0.4,3.3 0.4,3.3 0,0.3 0.3,0.6 0.6,0.6 0,0 0,0 0.1,0 l 2,-0.1 c 0.2,0 0.3,-0.1 0.5,-0.2 0.1,-0.1 0.2,-0.3 0.1,-0.4 0,0 0,-1.3 0,-3.3 1,-0.1 1.9,-0.3 2.8,-0.6 0.8,1.9 1.2,3.1 1.2,3.1 0.1,0.2 0.3,0.4 0.6,0.4 0.1,0 0.1,0 0.2,0 L 131,338 c 0.2,-0.1 0.3,-0.2 0.4,-0.3 0.1,-0.1 0.1,-0.3 0,-0.5 0,0 -0.3,-1.2 -0.9,-3.2 0.9,-0.4 1.7,-0.8 2.5,-1.3 1.2,1.6 2,2.6 2,2.6 0.1,0.2 0.3,0.3 0.5,0.3 0.1,0 0.3,0 0.4,-0.1 l 1.7,-1.1 c 0.1,-0.1 0.2,-0.2 0.3,-0.4 0,-0.2 0,-0.3 -0.1,-0.5 0,0 -0.6,-1.1 -1.7,-2.8 0.7,-0.6 1.4,-1.2 2.1,-1.9 1.6,1.3 2.6,2 2.6,2 0.1,0.1 0.2,0.1 0.4,0.1 0.2,0 0.4,-0.1 0.5,-0.2 l 1.3,-1.5 c 0.1,-0.1 0.2,-0.3 0.2,-0.5 0,-0.2 -0.1,-0.3 -0.2,-0.4 0,0 -0.9,-0.9 -2.4,-2.3 0.6,-0.8 1.1,-1.6 1.6,-2.4 1.9,0.8 3.1,1.3 3.1,1.3 0.1,0 0.2,0.1 0.2,0.1 0.2,0 0.5,-0.1 0.6,-0.4 l 0.9,-1.8 c 0.1,-0.3 0,-0.7 -0.3,-0.8 0,0 -1.1,-0.6 -2.9,-1.6 0.4,-0.9 0.6,-1.8 0.9,-2.7 2,0.3 3.3,0.4 3.3,0.4 0,0 0.1,0 0.1,0 0.3,0 0.6,-0.2 0.6,-0.5 l 0.4,-2 c 0,-0.2 0,-0.4 -0.1,-0.5 -0.1,-0.1 -0.2,-0.2 -0.4,-0.2 0,0 -1.2,-0.3 -3.2,-0.8 0.1,-0.9 0.2,-1.9 0.2,-2.8 2,-0.3 3.3,-0.4 3.3,-0.4 0.3,0 0.6,-0.3 0.6,-0.7 l -0.1,-2 c 0,-0.3 -0.3,-0.6 -0.6,-0.6 0,0 0,0 0,0 0,0 -1.3,0 -3.3,0.1 -0.1,-1 -0.3,-1.9 -0.6,-2.9 1.9,-0.8 3.1,-1.3 3.1,-1.3 0.3,-0.1 0.5,-0.5 0.4,-0.8 l -0.7,-1.9 c -0.1,-0.3 -0.3,-0.4 -0.6,-0.4 -0.1,0 -0.1,0 -0.2,0 0,0 -1.2,0.3 -3.2,0.9 -0.4,-0.9 -0.8,-1.7 -1.3,-2.5 1.6,-1.2 2.6,-2 2.6,-2 0.1,-0.1 0.2,-0.2 0.2,-0.4 0,-0.2 0,-0.4 -0.1,-0.5 l -1.1,-1.6 c -0.1,-0.2 -0.3,-0.3 -0.5,-0.3 -0.1,0 -0.2,0 -0.3,0.1 0,0 -1.1,0.6 -2.8,1.7 -0.6,-0.7 -1.2,-1.4 -1.9,-2.1 1.3,-1.6 2,-2.6 2,-2.6 0.1,-0.1 0.2,-0.3 0.1,-0.4 0,-0.2 -0.1,-0.3 -0.2,-0.5 l -1.5,-1.3 c -0.1,-0.1 -0.3,-0.2 -0.4,-0.2 -0.2,0 -0.3,0.1 -0.5,0.2 0,0 -0.9,0.9 -2.3,2.4 -0.8,-0.6 -1.6,-1.1 -2.4,-1.6 0.8,-1.9 1.3,-3.1 1.3,-3.1 0.1,-0.1 0.1,-0.3 0,-0.5 -0.1,-0.2 -0.2,-0.3 -0.3,-0.4 l -1.8,-0.9 c -0.1,0 -0.2,-0.1 -0.3,-0.1 -0.2,0 -0.5,0.1 -0.6,0.3 0,0 -0.6,1.1 -1.6,2.9 -0.9,-0.3 -1.8,-0.6 -2.7,-0.9 0.3,-2 0.4,-3.3 0.5,-3.3 0,-0.2 0,-0.3 -0.1,-0.5 -0.1,-0.1 -0.2,-0.2 -0.4,-0.3 l -2,-0.4 c 0,0 -0.1,0 -0.1,0 -0.3,0 -0.6,0.2 -0.6,0.5 0,0 -0.3,1.2 -0.8,3.2 -0.3,0 -0.6,-0.1 -0.9,-0.1 V 281 c 0,-0.9 3.2,-1.3 5.5,-1.5 l 0.8,-0.1 c 1.3,-0.1 2.2,-0.6 2.8,-1.2 0.5,-0.6 0.4,-1.2 0.4,-1.3 h -0.4 -22.8 -0.1 c 0,0.1 -0.1,0.7 0.4,1.3 0.5,0.7 1.4,1.1 2.8,1.2 l 0.8,0.1 c 2.3,0.2 5.5,0.6 5.5,1.5 v 0.3 l 1,-0.1 c 0,0 0.1,0 0.1,0 0.6,0 1.1,0.4 1.1,1 0,0.1 0.2,1.4 0.4,3.4 -0.2,0 -0.3,0 -0.5,0 -0.2,-2 -0.4,-3.3 -0.4,-3.3 0,-0.3 -0.3,-0.6 -0.6,-0.6 0,0 0,0 0,0 l -2,0.1 c -0.2,0 -0.4,0.1 -0.5,0.2 -0.1,0.1 -0.1,0.3 -0.1,0.4 0,0 0,1.3 0.1,3.3 -1,0.1 -1.9,0.3 -2.8,0.6 -0.8,-1.9 -1.3,-3.1 -1.3,-3.1 -0.1,-0.2 -0.3,-0.4 -0.6,-0.4 -0.1,0 -0.1,0 -0.2,0 l -1.9,0.7 c -0.3,0.1 -0.5,0.5 -0.4,0.8 0,0 0.3,1.2 0.9,3.2 -0.9,0.4 -1.7,0.8 -2.5,1.3 -1.2,-1.6 -2,-2.6 -2,-2.6 -0.1,-0.2 -0.3,-0.3 -0.5,-0.3 -0.1,0 -0.3,0 -0.4,0.1 l -1.6,1.1 c -0.1,0.1 -0.2,0.2 -0.3,0.4 0,0.2 0,0.3 0.1,0.5 -0.2,0.1 0.4,1.2 1.5,3 m 15.4,42.7 c -12.8,0 -23.2,-10.4 -23.2,-23.2 0,-12.8 10.4,-23.2 23.2,-23.2 12.8,0 23.2,10.4 23.2,23.2 0,12.8 -10.4,23.2 -23.2,23.2"
   id="path25" />
	<path
   d="m 98.2,362.2 c -0.1,0 -0.3,0.1 -0.4,0.1 v 0 0 c -0.2,-1.3 -0.5,-2.4 -0.7,-3.5 v 0 c 0.2,-0.1 0.3,-0.1 0.5,-0.1 0,0 0,-0.3 -0.1,-0.4 -0.6,0.2 -1.2,0.4 -1.8,0.6 v 0 c 0,0.1 0,0.2 0.1,0.3 l 0.5,-0.2 v 0 c 0.2,1 0.4,2 0.7,3.5 -0.1,0 -0.3,0.1 -0.4,0.2 v 0 c 0,0 0,0.2 0.1,0.3 0.7,-0.2 1.2,-0.4 1.8,-0.6 -0.2,0 -0.2,-0.1 -0.3,-0.2 z"
   id="path26" />
	<path
   d="m 101.6,359.4 v -0.2 c -0.1,-0.7 -0.3,-1.1 -0.6,-1.3 -0.2,-0.2 -0.5,-0.3 -0.8,-0.3 -0.1,0 -0.3,0 -0.4,0 -0.5,0.1 -0.8,0.3 -1,0.6 -0.2,0.3 -0.3,0.7 -0.2,1.3 0,0.2 0.1,0.4 0.1,0.5 l 0.1,0.6 c 0,0.2 0.1,0.6 0.3,0.8 0.3,0.5 0.7,0.6 1.1,0.6 0.1,0 0.2,0 0.4,0 0.5,-0.1 0.9,-0.3 1.1,-0.6 0.2,-0.3 0.3,-0.7 0.2,-1.3 -0.2,-0.2 -0.3,-0.5 -0.3,-0.7 m -1.2,2 c 0,0 -0.1,0 -0.1,0 -0.4,0 -0.5,-0.3 -0.5,-0.7 0,-0.2 -0.1,-0.4 -0.1,-0.6 V 360 c 0,-0.3 -0.1,-0.6 -0.1,-0.8 0,-0.2 -0.1,-0.7 0.5,-0.8 0.1,0 0.1,0 0.2,0 0.4,0 0.4,0.3 0.5,0.6 v 0 c 0.1,0.5 0.1,1 0.2,1.5 -0.2,0.3 -0.1,0.8 -0.6,0.9"
   id="path27" />
	<path
   d="m 90.7,361 c 0.1,0.5 0.5,2.2 0.6,2.4 v 0 0 0 c 0,0 -0.1,0 -1.2,-1.2 -0.2,-0.2 -0.4,-0.4 -0.6,-0.6 -0.1,0 -0.2,0.1 -0.3,0.1 -0.2,0.1 -0.4,0.2 -0.5,0.3 0.4,1.5 0.7,2.7 1,4 0.2,-0.1 0.5,-0.2 0.7,-0.4 0,-0.2 -0.6,-2.6 -0.7,-2.6 v 0 0 c 0,0 0,0 0.9,0.9 0.5,0.5 0.9,1 1.1,1.1 0.2,-0.1 0.4,-0.2 0.7,-0.3 -0.3,-1.4 -0.6,-2.7 -0.9,-4.1 -0.1,0.1 -0.6,0.3 -0.8,0.4"
   id="path28" />
	<path
   d="m 95.3,361.6 c -0.2,-0.2 -0.5,-0.3 -0.8,-0.3 H 94 c -0.3,0 -0.6,-0.1 -0.6,-0.4 0,-0.1 0,-0.3 0.3,-0.5 0.1,0 0.1,-0.1 0.2,-0.1 0.1,0 0.1,0 0.2,0 0.2,0 0.4,0.1 0.6,0.3 l 0.6,-0.6 c -0.3,-0.3 -0.6,-0.4 -1,-0.4 -0.1,0 -0.3,0 -0.5,0.1 -0.2,0 -0.3,0.1 -0.4,0.2 0,0 0,0 0,0 v 0 c -0.5,0.3 -0.8,0.8 -0.7,1.3 0.1,0.8 0.7,0.9 1.3,1 0.7,0.1 0.8,0.1 0.9,0.4 0,0.3 -0.2,0.5 -0.3,0.6 v 0 c -0.1,0 -0.1,0.1 -0.2,0.1 -0.1,0 -0.2,0 -0.2,0 -0.3,0 -0.5,-0.1 -0.6,-0.4 l -0.6,0.6 c 0.3,0.4 0.6,0.5 1,0.5 0.2,0 0.4,0 0.7,-0.1 0.1,0 0.3,-0.1 0.4,-0.2 v 0 c 0.1,-0.1 0.2,-0.2 0.3,-0.2 0.5,-0.5 0.5,-1.1 0.4,-1.2 -0.2,-0.4 -0.4,-0.6 -0.5,-0.7"
   id="path29" />
	<path
   d="m 76.2,367.5 c -0.2,0.1 -0.8,0.2 -0.9,0.2 0.2,0.8 0.5,1.6 0.7,2.4 l 0.1,0.4 c 0.1,0.3 0.1,0.5 0,0.7 -0.1,0.2 -0.3,0.2 -0.4,0.2 -0.1,0 -0.1,0 -0.2,0 -0.4,0 -0.6,-0.5 -0.7,-0.7 -0.3,-0.8 -0.6,-1.8 -0.9,-2.7 -0.3,0.1 -0.6,0.1 -0.9,0.2 0.3,1 0.6,1.9 0.8,2.7 0.1,0.4 0.3,0.9 0.8,1.2 0.2,0.1 0.4,0.2 0.7,0.2 0.2,0 0.3,0 0.5,-0.1 0.4,-0.1 0.7,-0.3 0.9,-0.6 0.3,-0.5 0.1,-1.1 0,-1.3 0.1,-0.9 -0.2,-1.9 -0.5,-2.8"
   id="path30" />
	<path
   d="m 79.1,367.3 v 0 c 0.1,0 0.7,-0.3 0.9,-0.4 l -0.2,-0.7 c -1,0.4 -1.9,0.7 -2.7,1 0,0.1 0.1,0.5 0.2,0.7 0.2,-0.1 0.3,-0.1 0.5,-0.2 0.2,-0.1 0.4,-0.1 0.5,-0.2 v 0 c 0.3,1.1 0.6,2.2 1,3.4 0.2,-0.1 0.7,-0.3 0.8,-0.3 -0.4,-1.2 -0.7,-2.3 -1,-3.3 z"
   id="path31" />
	<path
   d="m 84.5,364.8 v 0 c 0,-0.2 -0.2,-0.6 -0.2,-0.7 -1.2,0.6 -2,1 -2.7,1.3 0,0.2 0.2,0.6 0.2,0.7 l 0.1,-0.1 c 0.3,-0.1 0.5,-0.2 0.8,-0.4 v 0 0 c 0.3,1 0.6,2 0.9,3.3 0.2,-0.1 0.7,-0.4 0.8,-0.4 -0.3,-1.1 -0.6,-2.2 -0.9,-3.3 v 0 0 c 0.1,0.1 0.8,-0.3 1,-0.4"
   id="path32" />
	<path
   d="m 88.7,365.7 c -0.6,0.3 -1.8,0.9 -1.8,0.9 v 0 l -0.1,-0.4 c 0,-0.2 -0.1,-0.4 -0.1,-0.6 0.2,-0.1 0.9,-0.5 1.2,-0.6 0,-0.1 -0.1,-0.5 -0.2,-0.7 -0.2,0.1 -1.2,0.6 -1.2,0.6 v 0 -0.1 c 0,-0.1 -0.1,-0.3 -0.1,-0.4 l -0.1,-0.4 0.1,-0.1 c 0.5,-0.3 1.1,-0.5 1.6,-0.8 l -0.1,-0.3 c 0,-0.1 -0.1,-0.3 -0.1,-0.4 -0.4,0.2 -0.9,0.4 -1.3,0.6 v 0 c -0.4,0.2 -0.8,0.4 -1.2,0.6 0.4,1.6 0.7,2.9 1.1,4.1 l 0.7,-0.4 c 0.5,-0.3 1.2,-0.6 1.8,-0.9 v -0.2 c -0.2,-0.1 -0.2,-0.3 -0.2,-0.5"
   id="path33" />
	<path
   d="m 150.4,361 c -0.6,-0.3 -1.9,-0.8 -2,-0.8 l -0.1,0.3 c 0.1,0 0.5,0.2 0.5,0.2 v 0 l -1,3.4 v 0 l -0.5,-0.2 -0.1,0.3 c 0.6,0.2 1.3,0.5 2,0.8 l 0.1,-0.3 c -0.1,-0.1 -0.5,-0.2 -0.5,-0.2 v 0 0 c 0.4,-1.4 0.7,-2.5 1,-3.4 v 0 0 c 0.1,0 0.5,0.2 0.5,0.2 z"
   id="path34" />
	<path
   d="m 158.5,364.9 c -0.4,0.5 -1.8,2.5 -1.9,2.5 v 0 0 c 0,0 0.1,-2.5 0.1,-3.3 -0.1,0 -0.7,-0.4 -0.9,-0.5 0,0.3 0,3.4 -0.1,4.7 0.1,0 0.7,0.4 1,0.5 l 2.7,-3.4 c -0.3,-0.2 -0.9,-0.5 -0.9,-0.5"
   id="path35" />
	<path
   d="m 160.6,367.5 0.4,-1.1 v 0 l 0.5,0.2 0.1,-0.3 -1.9,-0.8 -0.1,0.3 0.5,0.2 v 0 l -1.3,3.4 -0.5,-0.2 c 0,0 -0.1,0.2 -0.1,0.3 0.6,0.3 1.2,0.5 1.8,0.8 l 0.1,-0.3 -0.5,-0.2 v 0 c 0.4,-0.7 0.7,-1.5 1,-2.3"
   id="path36" />
	<path
   d="m 152.4,361.9 c -0.2,-0.1 -0.5,-0.2 -0.7,-0.2 v 0 c -0.5,0 -0.9,0.4 -1.1,1 l -0.3,1.2 c -0.2,0.8 -0.1,1.2 0,1.4 0.2,0.3 0.5,0.6 0.9,0.8 0.1,0.1 0.4,0.1 0.6,0.1 v 0 c 0.1,0 0.2,0 0.3,0 0.4,-0.1 0.5,-0.4 0.6,-0.6 v 0 c 0.1,-0.1 0.1,-0.2 0.2,-0.4 l -0.8,-0.4 c -0.1,0.4 -0.3,0.6 -0.5,0.6 -0.1,0 -0.1,0 -0.2,0 -0.5,-0.2 -0.4,-0.7 -0.3,-0.9 l 0.4,-1.6 c 0,-0.1 0.1,-0.3 0.3,-0.4 0.1,0 0.1,0 0.2,0 v 0 c 0.1,0 0.1,0 0.2,0 0.2,0.1 0.5,0.3 0.3,0.8 l 0.8,0.4 c 0.1,-0.4 0.2,-0.9 -0.1,-1.3 -0.2,-0.3 -0.6,-0.5 -0.8,-0.5"
   id="path37" />
	<path
   d="m 163.2,367.6 v 0 c 0.1,0 0.1,0 0.2,0 0.3,0.1 0.5,0.4 0.5,0.7 l 0.8,-0.2 c -0.2,-0.6 -0.5,-0.9 -1.1,-1.1 -0.2,0 -0.3,-0.1 -0.5,-0.1 v 0 c -0.6,0 -1,0.3 -1.2,0.8 -0.3,0.8 0.2,1.2 0.7,1.6 0.6,0.4 0.7,0.6 0.6,0.9 -0.1,0.2 -0.3,0.4 -0.5,0.4 -0.1,0 -0.1,0 -0.2,0 -0.4,-0.1 -0.6,-0.4 -0.6,-0.8 L 161,370 c 0.1,0.8 0.6,1.1 1.2,1.2 0.1,0 0.3,0.1 0.4,0.1 h 0.1 v 0 c 0.1,0 0.2,0 0.3,0 0.7,-0.2 0.9,-0.7 0.9,-0.9 0.1,-0.4 0,-0.7 0,-0.8 -0.1,-0.3 -0.3,-0.5 -0.5,-0.7 l -0.5,-0.3 c -0.2,-0.2 -0.5,-0.4 -0.4,-0.7 0.2,-0.1 0.4,-0.3 0.7,-0.3"
   id="path38" />
	<path
   d="m 146.5,361.1 -0.4,-0.3 c -0.2,-0.2 -0.4,-0.4 -0.3,-0.7 0,0 0.1,-0.3 0.5,-0.3 0.1,0 0.1,0 0.2,0 0.3,0.1 0.5,0.4 0.5,0.7 l 0.8,-0.2 c -0.2,-0.6 -0.5,-0.9 -1,-1.1 -0.1,0 -0.3,-0.1 -0.4,-0.1 h -0.1 c -0.6,0 -1,0.3 -1.2,0.8 -0.3,0.8 0.2,1.2 0.7,1.6 0.5,0.4 0.7,0.6 0.6,0.9 -0.1,0.3 -0.4,0.4 -0.5,0.4 v 0 c -0.1,0 -0.1,0 -0.2,0 -0.3,-0.1 -0.5,-0.4 -0.6,-0.8 l -0.8,0.2 c 0.1,0.7 0.4,1 1.2,1.2 0.1,0 0.3,0.1 0.4,0.1 h 0.1 c 0.1,0 0.3,0 0.4,0 0.7,-0.2 0.9,-0.7 0.9,-0.9 0.1,-0.4 0.1,-0.7 0,-0.8 -0.4,-0.2 -0.6,-0.5 -0.8,-0.7"
   id="path39" />
	<path
   d="m 172.7,363.4 c -1.5,-2.3 -6.8,-4.3 -14.4,-5.4 h -0.2 l -0.9,3.8 h -0.1 c -0.8,-0.4 -1.8,-0.9 -2.8,-1.4 -6.8,-3.4 -12.1,-5.2 -15.2,-5.2 -0.9,0 -1.6,0.1 -2.2,0.4 -0.7,0.4 -1,0.9 -1.1,1.7 -0.2,1.7 -0.5,4.6 -0.7,6.4 l -0.1,0.5 c 0,0.2 0,0.4 -0.1,0.5 0,0.1 0,0.2 0,0.4 -0.1,1.7 1.7,2.5 3.4,3.2 -0.9,0.4 -1.9,0.7 -3.1,0.9 -1.8,-0.8 -3.6,-1.7 -5.3,-2.6 0.5,-0.4 1,-0.7 1.5,-1 0.9,-0.5 1.7,-1 2.1,-1.6 0.8,-1.2 0.8,-2.4 -0.1,-3.2 -0.2,-0.1 -0.4,-0.3 -0.6,-0.4 v 0 c -1,-0.5 -3.3,-1.8 -5.6,-1.8 2.6,-1.7 5.1,-3.5 7.5,-5.3 1.3,0.6 2.6,0.9 4,0.9 5.1,0 9.8,-4.2 11.3,-8 -0.7,0.6 -2.2,0.7 -4,0.8 v 0 c -1.3,0.1 -2.7,0.2 -4,0.5 -0.3,0.1 -0.5,0.2 -0.8,0.3 0.7,-0.7 1.4,-1.4 2.1,-2.1 0.9,0.2 1.8,0.4 2.7,0.4 5.8,0 9.8,-5 10.5,-8.7 -0.6,0.6 -1.9,0.9 -3.5,1.2 -1.2,0.2 -2.5,0.5 -3.7,0.9 -0.3,0.1 -0.7,0.3 -1,0.5 0.7,-0.9 1.3,-1.8 1.9,-2.7 0.5,0.1 1,0.1 1.6,0.1 1.6,0 3.1,-0.4 4.5,-1 0,0 0,0 0,0 0,0 0,0 0,0 v 0 c 0,0 0.1,0 0.1,0 0.1,0 0.1,-0.1 0.2,-0.1 0,0 0,0 0,0 0,0 0,0 0,0 2.2,-1.2 4.1,-3.3 5.1,-5.8 0.4,-0.9 0.6,-1.7 0.7,-2.5 -0.5,0.7 -1.8,1 -3.4,1.4 -1.2,0.3 -2.5,0.7 -3.6,1.2 -0.9,0.5 -1.7,1.1 -2.4,1.9 0.6,-1.1 1.1,-2.2 1.5,-3.3 0.2,0 0.4,0 0.7,0 2.5,0 4.9,-1.3 6.4,-3.6 0.7,-1.1 1.2,-2.2 1.6,-3.2 0.5,-1.2 1,-2.3 1.9,-3.3 -1,0 -3.5,0.2 -6,1.9 -1,0.7 -1.9,1.6 -2.7,2.6 0.3,-1 0.5,-2.1 0.7,-3.2 2.8,-0.2 5.3,-2.1 6.4,-5 0.5,-1.2 0.7,-2.3 0.8,-3.4 v 0 c 0.2,-1.3 0.4,-2.4 1,-3.5 -1,0.2 -3.3,0.9 -5.4,3.1 -1,1.1 -1.8,2.4 -2.3,3.8 0.1,-1.3 0.1,-2.5 0,-3.8 2.3,-1 4,-2.6 4.8,-4.8 1.2,-2.9 0.7,-5.9 -0.1,-7.6 -0.1,0.7 -0.8,1.3 -1.7,2.1 -0.7,0.6 -1.5,1.4 -2.1,2.2 -0.8,1.2 -1.1,2.7 -1.3,4.4 -0.1,-1.4 -0.4,-2.8 -0.6,-4.3 2,-1.5 3.2,-3.5 3.5,-5.8 0.4,-3 -0.8,-5.8 -2,-7.3 0.1,0.6 -0.4,1.5 -1.1,2.4 -0.5,0.8 -1.1,1.7 -1.4,2.6 -0.3,0.7 -0.4,1.5 -0.4,2.4 -0.3,-1 -0.6,-1.9 -0.9,-2.9 1.8,-1.6 2.7,-3.7 2.8,-6 0.1,-3.1 -1.5,-5.7 -2.8,-7 0.2,0.6 -0.3,1.5 -0.8,2.5 -0.4,0.8 -0.9,1.8 -1.1,2.7 -0.2,0.8 -0.2,1.8 0,2.7 -0.4,-0.9 -0.8,-1.8 -1.2,-2.8 1.4,-1.6 2,-3.5 1.9,-5.6 -0.2,-2.9 -1.9,-5.2 -3.3,-6.4 0.2,0.6 0,1.5 -0.4,2.5 v 0 c -0.2,0.8 -0.5,1.6 -0.6,2.5 -0.1,0.9 0,1.9 0.3,2.9 -0.2,-0.3 -0.4,-0.7 -0.5,-1 -0.3,-3 -1.4,-5.1 -3.5,-6.6 -1,-0.7 -2.1,-1.1 -3,-1.4 -1.1,-0.4 -1.9,-0.7 -2.3,-1.4 -0.3,2.4 0.8,5.7 3.5,7.1 0.8,0.4 1.6,0.8 2.3,1 1.2,0.5 2.1,0.9 2.7,1.5 0.6,1.2 1.2,2.3 1.8,3.5 -0.1,-0.1 -0.2,-0.2 -0.3,-0.3 -0.1,-0.1 -0.2,-0.2 -0.3,-0.2 -0.8,-0.7 -1.9,-1.3 -2.8,-1.8 v 0 c -1.3,-0.7 -2.3,-1.3 -2.6,-1.9 -0.4,1.8 0,4.6 1.9,6.9 1.2,1.5 3.3,3.3 6.9,3.4 0.6,1.6 1.2,3.2 1.7,4.8 -0.6,-0.8 -1.5,-1.6 -2.3,-2.2 v 0 c -1.1,-0.9 -2,-1.7 -2.1,-2.4 -0.8,1.5 -1,4.2 0.1,6.7 0.8,1.8 2.4,4.1 6,5.2 0.3,1.7 0.5,3.4 0.6,5.1 0,0 0,-0.1 0,-0.1 -0.5,-1 -1.3,-1.9 -2,-2.8 -0.9,-1.1 -1.6,-2 -1.6,-2.7 -1.1,1.5 -1.9,4.2 -1.2,7 0.4,1.8 1.6,4.3 4.7,6 -0.2,1.6 -0.4,3.1 -0.7,4.7 -0.2,-0.8 -0.5,-1.6 -0.8,-2.4 v 0 c -0.5,-1.3 -0.9,-2.5 -0.7,-3.1 -1.7,1.2 -3.6,3.7 -3.8,6.9 -0.1,1.8 0.2,4.4 2.7,6.9 -0.9,2 -1.9,3.9 -3,5.7 0.1,-0.3 0.2,-0.6 0.2,-0.9 0.2,-1.2 0.1,-2.6 0.1,-3.8 -0.1,-1.6 -0.1,-2.9 0.3,-3.6 -2,0.8 -4.6,3.1 -5.8,6.4 -0.7,2 -1.2,5 0.5,8.5 -1.3,1.6 -2.7,3.1 -4.2,4.5 0.4,-0.6 0.7,-1.2 0.9,-1.8 0.4,-1.3 0.6,-2.7 0.8,-4 0.2,-1.7 0.4,-3.2 1.1,-3.9 -1.8,0.6 -3.6,1.8 -5.2,3.3 0,0 0,0 0,0 v 0 c -0.1,0.1 -0.1,0.1 -0.2,0.2 0,0 0,0 0,0 v 0 c -0.1,0.1 -0.1,0.1 -0.2,0.2 0,0 0,0 0,0 0,0 0,0 0,0 -0.8,0.9 -1.5,2 -2,3.1 -1.2,2.5 -1.3,5.1 -0.5,7.6 -3.2,2.6 -6.8,5.1 -10.5,7.5 V 356 c 0,0 0,0 0,0 v 0 c 0.3,-1 1.6,-1.5 2.9,-2 0.9,-0.3 1.8,-0.7 2.6,-1.3 0.8,-0.7 1.3,-1.4 1.4,-2.2 0.1,-1 -0.5,-1.7 -0.5,-1.7 -0.1,-0.1 -0.2,-0.2 -0.3,-0.2 v 0 c -1,-0.9 -5.1,-2.2 -6.6,-2.2 -0.1,0 -0.1,0 -0.1,0 -1,0.1 -1.8,0.3 -2.4,0.5 -0.7,0.2 -1.2,0.4 -1.8,0.4 -0.6,0 -1.3,-0.2 -2,-0.4 -0.7,-0.2 -1.5,-0.5 -2.4,-0.5 0,0 -0.1,0 -0.1,0 -1.5,0 -5.5,1.3 -6.6,2.2 v 0 c -0.1,0.1 -0.2,0.2 -0.3,0.3 0,0 -0.6,0.7 -0.5,1.7 0.1,0.8 0.6,1.5 1.4,2.2 0.7,0.6 1.6,0.9 2.6,1.3 1.2,0.5 2.4,0.9 2.7,1.8 v 0 c 0,0.1 0,0.1 0,0.2 v 2.4 c -3.8,-2.4 -7.3,-4.8 -10.5,-7.4 0.9,-2.5 0.7,-5.1 -0.5,-7.6 -0.5,-1.1 -1.2,-2.1 -2,-3.1 0,0 0,0 0,0 v 0 c -0.1,-0.1 -0.1,-0.1 -0.2,-0.2 v 0 c 0,0 0,0 0,0 -0.1,-0.1 -0.1,-0.1 -0.2,-0.2 v 0 0 c -1.5,-1.6 -3.4,-2.8 -5.2,-3.3 0.7,0.7 0.9,2.2 1.1,3.9 0.2,1.3 0.4,2.7 0.8,4 0.2,0.6 0.5,1.3 0.9,1.8 -1.5,-1.5 -2.9,-3 -4.2,-4.5 1.7,-3.5 1.2,-6.5 0.5,-8.5 -1.2,-3.3 -3.8,-5.6 -5.8,-6.4 0.5,0.6 0.4,2 0.3,3.6 -0.1,1.2 -0.1,2.6 0.1,3.8 0,0.3 0.1,0.6 0.2,0.9 -1.1,-1.8 -2.1,-3.8 -3,-5.7 2.4,-2.5 2.8,-5.1 2.7,-6.9 -0.2,-3.1 -2.1,-5.7 -3.8,-6.9 0.3,0.7 -0.2,1.8 -0.7,3.1 v 0 c -0.3,0.8 -0.6,1.6 -0.8,2.4 -0.3,-1.5 -0.6,-3.1 -0.7,-4.7 3.1,-1.7 4.3,-4.2 4.7,-6 0.7,-2.9 -0.1,-5.6 -1.2,-7 0,0.7 -0.7,1.6 -1.6,2.7 -0.7,0.8 -1.4,1.8 -2,2.8 0,0 0,0.1 0,0.1 0.1,-1.7 0.3,-3.4 0.6,-5.1 3.6,-1.1 5.2,-3.4 6,-5.2 1.1,-2.6 0.8,-5.2 0.1,-6.7 -0.1,0.7 -1,1.5 -2.1,2.4 v 0 c -0.8,0.7 -1.6,1.4 -2.3,2.2 0.5,-1.6 1,-3.2 1.7,-4.8 3.6,-0.1 5.7,-1.9 6.9,-3.4 1.8,-2.3 2.2,-5.2 1.9,-6.9 -0.3,0.6 -1.4,1.2 -2.6,1.9 v 0 c -0.9,0.5 -2,1.1 -2.8,1.8 -0.1,0.1 -0.2,0.2 -0.3,0.2 -0.1,0.1 -0.2,0.2 -0.3,0.3 0.6,-1.2 1.2,-2.3 1.8,-3.5 0.6,-0.6 1.5,-1 2.7,-1.5 0.6,-0.3 1.4,-0.6 2.3,-1 2.8,-1.4 3.9,-4.7 3.5,-7.1 -0.4,0.7 -1.3,1 -2.3,1.4 -0.9,0.3 -2,0.7 -3,1.4 -2.1,1.4 -3.3,3.6 -3.5,6.6 -0.2,0.3 -0.4,0.7 -0.5,1 0.3,-1 0.4,-1.9 0.3,-2.9 -0.1,-0.9 -0.4,-1.8 -0.6,-2.5 v 0 c -0.3,-1 -0.6,-1.9 -0.4,-2.5 -1.4,1.2 -3.1,3.5 -3.3,6.4 -0.2,2 0.5,4 1.9,5.6 -0.4,0.9 -0.8,1.9 -1.2,2.8 0.2,-0.9 0.2,-1.9 0,-2.7 -0.2,-1 -0.7,-1.9 -1.1,-2.7 -0.5,-1 -0.9,-1.9 -0.8,-2.5 -1.4,1.4 -2.9,4 -2.8,7 0.1,2.3 1,4.3 2.8,6 -0.3,1 -0.6,1.9 -0.9,2.9 0,-0.8 -0.1,-1.7 -0.4,-2.4 -0.4,-1 -0.9,-1.9 -1.5,-2.6 -0.6,-1 -1.2,-1.8 -1.1,-2.4 -1.2,1.5 -2.4,4.2 -1.9,7.3 0.3,2.3 1.5,4.3 3.5,5.8 -0.3,1.4 -0.5,2.9 -0.6,4.3 -0.1,-1.7 -0.5,-3.2 -1.3,-4.4 -0.6,-0.9 -1.4,-1.6 -2.1,-2.2 v 0 c -0.9,-0.8 -1.6,-1.5 -1.7,-2.1 -0.8,1.8 -1.2,4.8 -0.1,7.6 0.9,2.2 2.6,3.8 4.8,4.8 0,1.3 0,2.6 0,3.8 -0.5,-1.4 -1.3,-2.7 -2.3,-3.8 -2,-2.2 -4.4,-2.9 -5.3,-3.1 0.6,1.1 0.8,2.2 1,3.5 v 0 c 0.2,1.1 0.4,2.2 0.8,3.4 1.1,2.9 3.6,4.8 6.4,5 0.2,1.1 0.4,2.1 0.7,3.2 -0.8,-1 -1.6,-1.9 -2.7,-2.6 -2.5,-1.7 -5,-1.9 -6,-1.9 0.9,0.9 1.4,2.1 1.9,3.3 0.4,1 0.9,2.1 1.6,3.2 1.5,2.3 3.9,3.6 6.4,3.6 0.2,0 0.4,0 0.7,0 0.5,1.1 1,2.2 1.5,3.3 -0.7,-0.8 -1.5,-1.4 -2.4,-1.9 -1.1,-0.6 -2.5,-0.9 -3.6,-1.2 -1.5,-0.4 -2.9,-0.8 -3.4,-1.4 0.1,0.8 0.4,1.7 0.7,2.5 1,2.4 2.9,4.5 5.1,5.8 v 0 c 0,0 0,0 0,0 0.1,0 0.1,0.1 0.2,0.1 0,0 0.1,0 0.1,0 v 0 c 0,0 0,0 0,0 0,0 0,0 0,0 1.4,0.7 2.9,1 4.5,1 0.5,0 1,0 1.6,-0.1 0.6,0.9 1.3,1.8 1.9,2.7 -0.3,-0.2 -0.6,-0.4 -1,-0.5 -1.2,-0.5 -2.5,-0.7 -3.7,-0.9 -1.6,-0.3 -2.9,-0.5 -3.5,-1.2 0.7,3.7 4.7,8.7 10.5,8.7 0.9,0 1.8,-0.1 2.7,-0.4 0.7,0.7 1.4,1.4 2.1,2.1 -0.3,-0.1 -0.5,-0.2 -0.8,-0.3 -1.3,-0.4 -2.7,-0.4 -4,-0.5 v 0 c -1.7,-0.1 -3.3,-0.2 -4,-0.8 1.5,3.9 6.3,8 11.3,8 1.4,0 2.7,-0.3 4,-0.9 2.4,1.8 4.9,3.6 7.5,5.3 -2.1,0 -4.2,1.1 -5.4,1.8 v 0 0 c -0.2,0.1 -0.4,0.2 -0.6,0.4 -0.9,0.8 -0.9,2 -0.1,3.2 0.4,0.6 1.3,1.1 2.1,1.7 0.5,0.3 1,0.6 1.5,0.9 -1.8,0.9 -3.6,1.8 -5.4,2.6 -1.1,-0.3 -2.2,-0.6 -3.1,-0.9 1.8,-0.7 3.8,-1.6 3.3,-3.7 0,-0.1 0,-0.2 0,-0.4 -0.2,-1.8 -0.6,-5.1 -0.8,-6.9 -0.1,-0.7 -0.5,-1.3 -1.1,-1.7 -0.5,-0.3 -1.3,-0.4 -2.2,-0.4 -3.2,0 -8.4,1.8 -15.2,5.2 -1,0.5 -1.9,1 -2.8,1.4 h -0.1 l -0.9,-3.8 h -0.3 c -7.5,1.1 -12.9,3.1 -14.3,5.4 -0.4,0.6 -0.5,1.3 -0.3,2 0,0 0,0 0,0.1 l 2.2,7.2 c 0.2,0.7 0.7,1.2 1.4,1.5 0.5,0.2 1.2,0.3 1.9,0.3 3.1,0 8.2,-1.8 14.7,-5.2 3.8,-2 7.1,-3.5 9.8,-4.4 0.1,2.1 0.2,4.4 0.2,6.4 v 0 0 c 0,0.1 0,0.1 0,0.2 0,0.4 0.1,0.7 0.2,1.1 -1.2,0.5 -2.4,1 -3.6,1.5 0.9,0.2 1.8,0.6 2.7,0.7 0.6,-0.3 1.2,-0.5 1.7,-0.8 0.5,0.6 1.2,1.1 2.1,1.7 1.7,1 4.1,1.9 7.2,2.5 0.3,0.8 0.8,1.6 1.4,2.6 l 0.4,0.7 0.2,-0.8 c 0.2,-0.8 0.5,-1.5 0.9,-2 2.9,0.5 6.1,0.7 9,0.7 v 0 0 c 2.9,0 6.2,-0.3 9.1,-0.7 0.4,0.5 0.8,1.2 1,2 l 0.2,0.8 v 0 l 0.4,-0.7 c 0.6,-1 1.1,-1.9 1.4,-2.7 3,-0.7 5.4,-1.5 7.1,-2.5 0.9,-0.5 1.5,-1.1 2,-1.6 0.6,0.3 1.2,0.5 1.7,0.8 0.9,-0.1 1.8,-0.6 2.7,-0.7 -1.2,-0.5 -2.4,-1 -3.6,-1.5 0.1,-0.4 0.2,-0.7 0.2,-1.1 0,-0.1 0,-0.2 0,-0.3 0,-2.2 0,-4.4 0.1,-6.3 2.7,0.9 6,2.5 9.9,4.4 6.6,3.4 11.7,5.2 14.7,5.2 0.8,0 1.4,-0.1 1.9,-0.3 0.7,-0.3 1.2,-0.8 1.4,-1.5 l 2.2,-7.2 v 0 c 0,0 0,0 0,-0.1 -0.3,-0.9 -0.5,-1.5 -0.9,-2.2 m -14.4,-55.7 c 0.1,-1.3 0.4,-2.5 0.9,-3.4 0.5,-1.1 1.4,-1.9 2.2,-2.6 v 0 c 0.5,-0.4 0.9,-0.8 1.1,-1.2 v -0.1 0.1 c 0.1,0.5 0.5,2.4 -0.1,4.6 -0.3,1.1 -0.7,2 -1.3,2.8 -0.7,0.9 -1.6,1.8 -2.7,2.4 1,-1.4 2.1,-4.2 2.4,-5.2 -0.6,0.9 -1.8,3.4 -2.6,4.5 0,-0.5 0,-1.2 0.1,-1.9 M 153.4,288 c 0.1,-1.2 0.6,-2.2 1.1,-3.1 v 0 c 0.3,-0.6 0.5,-1.1 0.6,-1.4 v -0.1 0.1 c 0.3,0.4 1.3,2 1.6,4.2 0.1,1.1 0.1,2.1 -0.2,3.1 -0.3,1.1 -0.9,2.2 -1.7,3.2 0.5,-1.6 0.5,-5 0.4,-6.1 -0.1,1 -0.3,3.8 -0.8,5.3 -0.2,-0.5 -0.4,-1 -0.6,-1.7 -0.3,-1.3 -0.5,-2.4 -0.4,-3.5 m -6.9,-0.4 c -1,-1.6 -1.5,-3.4 -1.5,-4.4 v -0.1 0 c 0.5,0.4 1.2,0.7 1.9,1.1 1,0.5 2.1,1.1 2.9,1.9 0.7,0.8 1.3,1.7 1.8,2.7 0.4,0.8 0.6,1.5 0.8,2 -1.4,-1 -4.1,-3.4 -4.5,-3.9 0.6,1.1 2.8,3.1 3.8,4.1 -1.1,-0.2 -2.1,-0.6 -3,-1.2 -0.9,-0.5 -1.6,-1.3 -2.2,-2.2 m 6.5,51.7 c 1,-0.2 1.9,-0.3 2.5,-0.6 h 0.1 v 0.1 c -0.3,0.7 -1.2,2.4 -2.8,3.9 -0.9,0.8 -1.8,1.4 -2.8,1.9 -1.2,0.5 -2.5,0.8 -3.9,0.8 -0.3,0 -0.6,0 -0.9,0 2.5,-1 5.6,-3.1 6,-3.5 -0.8,0.4 -4.7,2.5 -6.7,3.2 0.3,-0.5 0.8,-1.2 1.6,-2 0.9,-1 1.9,-1.8 3,-2.4 1.1,-1 2.6,-1.2 3.9,-1.4 m 2.5,-7.9 c 1,-0.7 2.3,-1 3.6,-1.4 v 0 c 1,-0.2 1.9,-0.5 2.6,-0.9 h 0.1 v 0.1 c -0.5,1.2 -1.5,2.9 -2.9,4.4 -1.9,1.9 -4.2,2.9 -6.8,2.9 -0.1,0 -0.2,0 -0.3,0 2.2,-1 5.4,-3.2 6.1,-3.9 -1.7,0.9 -4.6,2.6 -6.4,3.4 0.3,-0.5 0.7,-1.1 1.3,-1.9 0.7,-1.1 1.7,-2 2.7,-2.7 m 1.9,-7.8 c 0.8,-0.9 1.6,-1.7 2.6,-2.3 1.1,-0.7 2.3,-1.2 3.6,-1.5 h 0.1 v 0.1 c -0.1,0.3 -0.3,0.7 -0.5,1.2 -0.5,1.2 -1.2,3 -2.5,4.5 -0.7,0.8 -1.5,1.5 -2.3,1.9 -0.9,0.5 -2,0.8 -3.1,0.8 1.7,-1.2 4.2,-3.7 5.4,-5.5 -1.1,1.1 -4.2,4 -5.5,4.9 0.3,-0.7 0.5,-1.4 0.7,-2.2 0.5,-0.5 0.9,-1.3 1.5,-1.9 m 0.8,-7.4 v 0 0 c 0,-0.1 0,0 0,0 0.3,-0.8 0.7,-1.6 1.2,-2.4 v 0 0 h 0.1 c 0.5,-0.7 1,-1.4 1.6,-2 0.9,-0.9 2,-1.6 3.2,-2.1 h 0.1 v 0.1 c -0.1,0.3 -0.2,0.7 -0.3,1.3 v 0 c -0.2,1.3 -0.5,3.2 -1.4,4.9 -0.5,0.9 -1.1,1.7 -1.8,2.4 -0.8,0.7 -1.9,1.2 -3.1,1.5 1.3,-1.3 3,-4 3.5,-5.1 -0.8,1 -2.3,3.1 -3.5,4.1 0,-0.5 0.1,-0.9 0.2,-1.4 0,-0.6 0.1,-1 0.2,-1.3 m -1.7,-19.9 c 0.2,-1.1 0.9,-2.2 1.4,-3 0.4,-0.5 0.7,-1 0.8,-1.4 v -0.1 0.1 c 0.2,0.5 1.1,2.2 1.1,4.4 0,1.1 -0.2,2.1 -0.6,3 -0.4,1 -1,2 -1.9,2.9 0.5,-1.8 1,-5.2 1,-5.8 -0.2,1.1 -0.9,3.8 -1.4,5.3 -0.1,-0.5 -0.3,-1.2 -0.4,-1.9 -0.2,-1.3 -0.2,-2.4 0,-3.5 m -6.2,-18.4 v 0 c 0.2,-0.5 0.3,-1 0.3,-1.4 v -0.1 0.1 c 0.3,0.4 1.4,1.8 1.9,3.8 0.2,1 0.3,1.9 0.2,2.8 -0.1,1.1 -0.5,2.1 -1.2,3.1 0.2,-1.9 -0.3,-5.7 -0.3,-5.7 0,0 -0.1,3.5 -0.2,4.8 -0.2,-0.4 -0.4,-0.9 -0.5,-1.3 -0.4,-1.1 -0.6,-2.1 -0.7,-3.1 0,-1.1 0.3,-2.2 0.5,-3 m -3.4,2.6 c -0.8,-0.3 -1.9,-0.7 -3.1,-1.4 -1,-0.6 -1.8,-1.3 -2.3,-2.3 -0.4,-0.7 -0.6,-1.6 -0.7,-2.6 v -0.1 h 0.1 c 0.1,0.1 0.4,0.2 0.8,0.3 v 0 c 0.7,0.2 1.8,0.6 3.2,1.4 0.5,0.3 1,0.6 1.4,1.1 0.4,0.4 0.7,0.9 1.1,1.4 0.5,0.8 0.8,1.8 0.9,2.5 -1,-1.5 -3.8,-3.4 -3.8,-3.4 0,0 2.1,1.9 3.1,3.3 -0.3,0 -0.5,-0.1 -0.7,-0.2 z m 5.8,20.4 c -0.7,-0.8 -1.3,-1.7 -1.6,-2.7 -0.8,-2.2 -0.5,-4.1 -0.4,-4.5 v -0.1 0 c 0.3,0.5 0.9,1 1.5,1.5 v 0 c 0.9,0.7 1.8,1.5 2.4,2.5 0.5,0.9 0.9,1.9 1.1,3.1 0.2,0.7 0.2,1.4 0.2,1.8 -1,-1.1 -2.9,-3.7 -3.3,-4.5 0.5,1.5 2,3.8 3,4.9 -1.2,-0.4 -2.1,-1.1 -2.9,-2 m 1.3,12 c -0.6,-0.9 -1,-2 -1.1,-3.1 -0.1,-0.9 -0.1,-1.8 0,-2.8 0.1,-0.7 0.3,-1.4 0.5,-1.9 v -0.1 0.1 c 0.2,0.5 0.7,1.1 1.3,1.7 v 0 c 0.7,0.9 1.6,1.8 1.9,2.9 0.3,0.9 0.5,1.8 0.5,2.8 0,0.9 0,1.7 -0.1,2.6 -0.8,-1.2 -2.1,-4 -2.5,-5.2 0.2,1.3 1.2,3.8 1.9,5.3 -1,-0.5 -1.8,-1.3 -2.4,-2.3 m -2.2,8.8 c 0.2,-0.9 0.5,-1.8 1,-2.7 0.3,-0.6 0.8,-1.3 1.2,-1.7 v 0 0.1 c 0.1,0.6 0.4,1.3 0.7,2.1 0.4,1.1 0.9,2.2 0.9,3.4 0,0.2 0,0.5 0,0.7 -0.4,1.6 -1,3.2 -1.6,4.7 -0.4,-2 -0.6,-6.2 -0.5,-7.1 -0.4,1.9 -0.3,5.3 0,7.1 -0.8,-1 -1.3,-2.1 -1.6,-3.2 -0.3,-1.1 -0.3,-2.2 -0.1,-3.4 m -6.3,14.6 c 0.1,-1.3 0.4,-2.5 1,-3.7 1,-2 2.5,-3.6 3.5,-4.3 h 0.1 v 0.1 c -0.1,0.5 -0.1,1.3 0,2.2 0.1,1.4 0.1,3 -0.3,4.4 -0.4,1.2 -0.9,2.4 -1.7,3.6 -0.5,0.8 -1,1.4 -1.4,1.8 0,-1.9 0.9,-5.4 1.2,-6.6 -0.5,1 -1.5,4.6 -1.8,7 -0.4,-1.6 -0.7,-3.1 -0.6,-4.5 M 91.4,286.1 c 0.8,-0.8 1.9,-1.4 2.9,-1.9 v 0 c 0.7,-0.4 1.4,-0.7 1.9,-1.1 v 0 0.1 c -0.1,1.1 -0.5,2.8 -1.5,4.4 -0.6,0.9 -1.4,1.7 -2.2,2.3 -0.9,0.6 -1.9,1 -3,1.2 1.1,-1 3.2,-3 3.8,-4.1 -0.4,0.4 -3.1,2.9 -4.4,3.9 0.1,-0.5 0.4,-1.2 0.8,-2 0.4,-1.1 1,-2 1.7,-2.8 m -6.7,4.6 c -0.2,-1 -0.3,-2 -0.2,-3.1 0.3,-2.2 1.3,-3.8 1.6,-4.2 v -0.1 0.1 c 0.1,0.4 0.3,0.9 0.6,1.4 v 0 c 0.5,0.9 1,1.9 1.1,3.1 0,1 -0.1,2.2 -0.5,3.4 -0.2,0.7 -0.4,1.2 -0.6,1.7 -0.5,-1.6 -0.7,-4.3 -0.8,-5.3 -0.2,1.2 -0.1,4.5 0.4,6.1 -0.8,-0.9 -1.3,-1.9 -1.6,-3.1 M 80.1,308 c -0.6,-0.8 -1.1,-1.8 -1.3,-2.8 -0.6,-2.2 -0.2,-4.1 -0.1,-4.6 v -0.1 0.1 c 0.2,0.4 0.6,0.7 1.1,1.2 v 0 c 0.8,0.7 1.7,1.5 2.2,2.6 0.4,1 0.7,2.1 0.9,3.4 0.1,0.7 0.1,1.4 0.1,1.9 -0.8,-1.1 -2.1,-3.5 -2.6,-4.5 0.3,1 1.4,3.8 2.4,5.2 -1.1,-0.7 -2,-1.5 -2.7,-2.4 m 11,20.2 v 0 0 c 1.1,0.7 2.6,2.3 3.6,4.3 0.6,1.2 0.9,2.5 1,3.7 0.1,1.4 -0.1,2.9 -0.7,4.3 -0.2,-2.4 -1.3,-6 -1.7,-7 0.3,1.2 1.2,4.8 1.2,6.6 -0.4,-0.4 -0.9,-1.1 -1.4,-1.8 -0.8,-1.2 -1.4,-2.4 -1.7,-3.6 -0.4,-1.3 -0.3,-2.9 -0.3,-4.4 0,-0.7 0.1,-1.5 0,-2.1 m -5.5,-5.4 c 0,-1.2 0.5,-2.4 0.9,-3.4 0.3,-0.8 0.6,-1.5 0.7,-2.1 v -0.1 0 c 0.4,0.5 0.8,1.1 1.2,1.7 0.5,0.9 0.8,1.8 1,2.7 0.2,1.1 0.2,2.3 -0.1,3.3 -0.3,1.1 -0.8,2.2 -1.6,3.2 0.3,-1.9 0.4,-5.3 0,-7.1 0.1,0.9 0,5.2 -0.5,7.1 -0.6,-1.5 -1.2,-3.1 -1.6,-4.7 0,-0.1 0,-0.3 0,-0.6 m -1,-12.9 c 0.4,-1.1 1.2,-2.1 1.9,-2.9 v 0 c 0.5,-0.6 1,-1.2 1.3,-1.7 v -0.1 0.1 c 0.2,0.5 0.4,1.2 0.5,1.9 0.1,0.9 0.1,1.9 0,2.8 -0.2,1.1 -0.6,2.2 -1.2,3.1 -0.6,0.9 -1.4,1.8 -2.4,2.5 0.7,-1.5 1.8,-4.1 1.9,-5.3 -0.4,1.2 -1.7,4 -2.5,5.2 -0.1,-0.9 -0.1,-1.7 -0.1,-2.6 0.1,-1.2 0.3,-2.2 0.6,-3 M 89,295.2 v 0 c 0.6,-0.5 1.2,-1 1.6,-1.5 v 0 0.1 c 0.1,0.4 0.4,2.3 -0.4,4.5 -0.4,1 -0.9,1.9 -1.6,2.7 -0.8,0.8 -1.8,1.5 -3,2.1 1,-1.1 2.5,-3.4 3,-4.9 -0.5,0.8 -2.3,3.4 -3.3,4.5 0,-0.5 0.1,-1.1 0.2,-1.8 0.2,-1.1 0.6,-2.2 1.1,-3.1 0.6,-1.1 1.5,-1.9 2.4,-2.6 M 95,277 c 0.4,-0.5 0.9,-0.8 1.4,-1.1 1.4,-0.8 2.5,-1.1 3.2,-1.4 v 0 c 0.4,-0.1 0.6,-0.2 0.8,-0.3 v 0 0.1 c -0.1,1 -0.3,1.9 -0.7,2.6 -0.5,1 -1.3,1.7 -2.3,2.3 -1.2,0.7 -2.3,1.1 -3.1,1.4 v 0 c -0.2,0.1 -0.4,0.1 -0.6,0.2 1,-1.4 3.1,-3.3 3.1,-3.3 0,0 -2.8,1.9 -3.8,3.4 0.1,-0.7 0.4,-1.6 0.9,-2.5 0.3,-0.5 0.7,-1 1.1,-1.4 m -6.4,3.3 c 0.5,-2 1.6,-3.4 1.9,-3.8 v -0.1 0.1 c 0,0.4 0.2,0.8 0.3,1.3 v 0 c 0.3,0.8 0.6,1.9 0.5,3 -0.1,1 -0.3,2.1 -0.7,3.1 -0.2,0.5 -0.4,0.9 -0.5,1.3 -0.1,-1.4 -0.2,-4.8 -0.2,-4.8 0,0 -0.5,3.8 -0.3,5.7 -0.6,-1 -1,-2 -1.2,-3.1 -0.1,-0.8 0,-1.7 0.2,-2.7 m -6.7,19.1 c -0.4,-0.9 -0.6,-2 -0.6,-3 0,-2.2 0.8,-3.9 1.1,-4.4 v -0.1 0.1 c 0.1,0.4 0.4,0.8 0.8,1.4 0.6,0.8 1.2,1.9 1.4,3 0.2,1 0.2,2.2 0,3.5 -0.1,0.8 -0.3,1.4 -0.4,1.9 -0.5,-1.5 -1.2,-4.2 -1.4,-5.3 0,0.7 0.5,4.1 1,5.8 -0.8,-0.9 -1.5,-1.9 -1.9,-2.9 m -3.3,16.4 c -0.9,-1.7 -1.2,-3.6 -1.4,-4.9 v 0 c -0.1,-0.6 -0.2,-1 -0.2,-1.3 v -0.1 h 0.1 c 1.2,0.5 2.3,1.3 3.2,2.1 0.6,0.6 1.2,1.3 1.6,2 H 82 v 0 0 0 c 0.5,0.8 0.9,1.6 1.2,2.4 0,0 0,0 0,0 v 0 0 c 0.1,0.4 0.2,0.7 0.3,1.1 0.1,0.5 0.2,1 0.2,1.4 -1.2,-1.1 -2.6,-3.1 -3.5,-4.1 0.4,1.1 2.1,3.8 3.4,5.1 -1.2,-0.3 -2.2,-0.8 -3.1,-1.5 -0.8,-0.5 -1.4,-1.3 -1.9,-2.2 m 4.3,11.8 c -0.8,-0.5 -1.6,-1.1 -2.3,-1.9 -1.3,-1.5 -2,-3.3 -2.5,-4.5 -0.2,-0.5 -0.4,-1 -0.6,-1.2 v -0.1 h 0.1 c 1.3,0.3 2.5,0.8 3.6,1.5 1,0.6 1.9,1.4 2.6,2.3 0.6,0.6 1,1.4 1.4,2.1 0.2,0.7 0.5,1.4 0.7,2.2 -1.3,-0.9 -4.4,-3.8 -5.5,-4.9 1.2,1.8 3.7,4.3 5.4,5.5 -0.9,-0.2 -2,-0.5 -2.9,-1 m -0.4,6 c -1.5,-1.5 -2.4,-3.2 -2.9,-4.4 v -0.1 h 0.1 c 0.7,0.4 1.6,0.7 2.6,0.9 v 0 c 1.2,0.3 2.5,0.6 3.6,1.4 1,0.7 1.9,1.6 2.8,2.7 0.6,0.8 1.1,1.4 1.3,1.9 -1.9,-0.8 -4.8,-2.5 -6.4,-3.4 0.8,0.7 3.9,2.9 6.1,3.9 -0.1,0 -0.2,0 -0.3,0 -2.7,0 -5,-1 -6.9,-2.9 m 8.7,10.8 c -1,-0.4 -1.9,-1.1 -2.8,-1.9 -1.6,-1.5 -2.5,-3.2 -2.8,-3.9 v -0.1 h 0.1 c 0.6,0.3 1.5,0.5 2.5,0.6 1.3,0.2 2.8,0.5 4,1.1 1,0.6 2,1.4 3,2.4 0.7,0.8 1.3,1.6 1.6,2 -2,-0.7 -5.9,-2.7 -6.7,-3.2 0.4,0.4 3.5,2.5 6,3.5 -0.3,0 -0.6,0 -0.9,0 -1.5,0.3 -2.8,0 -4,-0.5 m 44.4,20.6 v 0 0 c 0,-0.1 0,-0.2 0,-0.3 v 0 c 0.1,-0.4 0.3,-0.7 0.7,-0.8 0.3,-0.2 0.8,-0.2 1.3,-0.2 1.1,0 2.7,0.4 4.7,1 -0.1,1.5 -0.1,3.2 -0.2,5 -0.8,-0.9 -2.1,-1.4 -3.3,-1.9 -2,-0.9 -3.2,-1.5 -3.2,-2.8 m -6.9,3.3 c 0,-0.3 0.1,-0.5 0.3,-0.7 1.3,0.7 2.6,1.4 4,2.1 -1.1,0.2 -2.2,0.4 -3.5,0.6 -0.6,-0.8 -0.8,-1.4 -0.8,-2 m 4.4,-7 c 0.6,0.5 0.6,1.4 0,2.3 -0.3,0.5 -1.1,1 -1.9,1.4 v 0 c -0.6,0.4 -1.3,0.8 -1.8,1.2 -1.3,-0.7 -2.7,-1.4 -4,-2.1 1.7,-0.8 3.3,-1.6 4.7,-2.8 0.5,-0.4 1,-0.6 1.6,-0.6 0.6,0.1 1.1,0.3 1.4,0.6 m -8.9,9.4 c -1.2,0.1 -2.4,0.1 -3.6,0.1 -1.1,0 -2.3,0 -3.4,-0.1 1.1,-1.1 1.9,-2.2 1.9,-3.5 0,-0.7 -0.4,-1.4 -0.9,-2 0.9,0.2 1.7,0.3 2.5,0.3 v 0 0 0 c 0.9,0 1.7,-0.1 2.7,-0.4 -0.6,0.7 -1,1.4 -1,2.1 -0.1,1.2 0.7,2.4 1.8,3.5 m -3.6,-5.9 c -0.9,0 -1.7,-0.1 -2.7,-0.4 0.9,-0.5 1.7,-1 2.6,-1.5 h 0.1 0.1 c 0.8,0.5 1.7,1 2.6,1.5 -1,0.3 -1.8,0.4 -2.7,0.4 m 0,-10.6 c -0.2,0 -0.5,0 -0.7,0 -0.1,-1.4 -0.5,-2.2 -1.1,-2.8 0.7,0.1 1.3,0.2 1.9,0.2 0.6,0 1.2,-0.1 1.8,-0.2 -0.6,0.6 -1,1.3 -1.1,2.8 -0.2,0.1 -0.5,0 -0.8,0 m 0,0.7 c 4,0 4.4,0.6 4.4,1.2 v 5.1 c 0,0.9 -1.8,1.1 -4.4,1.1 -2.6,0 -4.4,-0.2 -4.4,-1.1 v -5.1 c 0,-0.6 0.4,-1.2 4.4,-1.2 m 6.7,4.4 c 1.3,0 2.7,0.5 3.8,0.9 -0.5,0.1 -1,0.3 -1.4,0.7 -1.4,1.2 -3.1,2.1 -5,2.9 -0.6,-0.3 -1.2,-0.7 -1.8,-1 1.6,-0.1 2.8,-0.5 2.8,-1.7 v -1.4 c 0.2,-0.1 0.3,-0.2 0.5,-0.3 0.3,-0.1 0.7,-0.1 1.1,-0.1 m 14.4,-10.9 c 1.4,-0.6 3.1,-0.7 4.6,-0.7 1,0 1.9,-0.1 2.5,-0.3 h 0.1 v 0.1 c -0.4,0.6 -1.6,2.2 -3.4,3.6 -0.9,0.7 -1.8,1.2 -2.8,1.6 -1.1,0.5 -2.3,0.7 -3.5,0.7 -0.8,0 -1.5,-0.1 -2.3,-0.3 2.3,-0.5 5.2,-1.6 6.5,-2.5 -1.3,0.5 -5.1,1.9 -7.3,2.1 0.3,-0.3 0.8,-0.9 1.6,-1.6 0.2,-0.2 0.5,-0.4 0.7,-0.6 0.9,-0.8 2,-1.6 3.3,-2.1 m -5,-2.8 c 0.3,-1.3 0.9,-2.5 1.7,-3.6 1.6,-2.3 3.7,-3.6 4.6,-4.1 h 0.1 v 0.1 c -0.2,0.6 -0.3,1.5 -0.4,2.5 -0.2,1.5 -0.3,3.2 -1,4.5 -1.3,2.6 -3.6,4.5 -4.4,5.2 0.4,-2 2.1,-5.8 2.6,-6.9 -0.5,0.6 -2.4,4.1 -3.1,6.5 -0.4,-1.5 -0.4,-2.9 -0.1,-4.2 m -4.8,5 c -0.1,0.6 -0.5,1.2 -1.2,1.8 -0.6,0.5 -1.5,0.8 -2.4,1.2 -1.1,0.4 -2.3,0.9 -2.9,1.7 -0.4,-0.6 -1.5,-0.9 -3.4,-1 0.1,-1.8 0.8,-2.3 1.6,-2.9 l 0.2,-0.2 v 0 c 0.7,-0.2 1.5,-0.5 2.4,-0.8 0.5,-0.2 1.1,-0.5 1.5,-0.7 1,-0.5 1.8,-0.9 2.5,-0.9 0.5,0 0.8,0.2 1.2,0.5 0.2,0.1 0.5,0.6 0.5,1.3 m -15.6,-3.5 v 0 c 0.9,0.1 1.6,0.3 2.3,0.5 0.7,0.2 1.4,0.4 2.1,0.4 v 0 c 0,0 0,0 0,0 0,0 0,0 0,0 v 0 c 0.7,0 1.3,-0.2 2,-0.4 0.7,-0.2 1.4,-0.4 2.3,-0.5 h 0.1 c 0.9,0 3,0.6 4.5,1.2 -0.7,0.1 -1.4,0.5 -2.1,0.8 -0.5,0.2 -1,0.5 -1.5,0.7 -2.6,1 -4,1.3 -5.4,1.3 -1.4,0 -2.9,-0.4 -5.4,-1.3 -0.5,-0.2 -1,-0.4 -1.5,-0.7 -0.7,-0.3 -1.4,-0.7 -2.1,-0.8 1.6,-0.7 3.8,-1.2 4.7,-1.2 m -3.3,6.5 c -0.9,-0.3 -1.8,-0.7 -2.4,-1.2 -0.7,-0.6 -1.1,-1.2 -1.2,-1.8 -0.1,-0.7 0.3,-1.2 0.3,-1.3 0.3,-0.4 0.7,-0.5 1.2,-0.5 0.7,0 1.5,0.4 2.5,0.8 0.5,0.2 1,0.5 1.5,0.7 0.9,0.3 1.7,0.6 2.4,0.8 v 0 l 0.2,0.2 c 0.8,0.6 1.5,1.2 1.6,2.9 -1.9,0.1 -3,0.4 -3.5,0.9 -0.3,-0.7 -1.5,-1.1 -2.6,-1.5 M 98.6,340.3 c -0.1,-1 -0.2,-1.9 -0.4,-2.5 v -0.1 h 0.1 c 0.8,0.5 3,1.9 4.6,4.1 0.8,1.2 1.4,2.4 1.7,3.6 0.3,1.3 0.3,2.7 0,4.1 -0.7,-2.5 -2.6,-5.9 -3.1,-6.5 0.5,1.1 2.2,4.9 2.6,6.9 -0.9,-0.7 -3.1,-2.6 -4.5,-5.2 -0.6,-1.2 -0.8,-2.9 -1,-4.4 m 3.5,13 c -1.2,0 -2.4,-0.2 -3.5,-0.7 -1,-0.4 -1.9,-0.9 -2.8,-1.6 -1.8,-1.4 -3,-3 -3.4,-3.6 v -0.1 h 0.1 c 0.6,0.2 1.5,0.2 2.5,0.3 1.5,0.1 3.2,0.1 4.6,0.7 1.3,0.5 2.4,1.3 3.3,2.1 0.2,0.2 0.5,0.4 0.7,0.6 0.8,0.7 1.4,1.3 1.6,1.6 -2.2,-0.2 -6,-1.6 -7.3,-2.1 1.4,0.9 4.2,2 6.5,2.5 -0.7,0.2 -1.5,0.3 -2.3,0.3 m 11.8,6 c 0.5,0 0.9,0.1 1.3,0.2 0.1,0.1 0.3,0.2 0.4,0.3 v 1.4 c 0,1.1 1.2,1.5 2.8,1.7 -0.6,0.3 -1.2,0.7 -1.8,1 v 0 c -1.9,-0.9 -3.3,-1.6 -4.8,-2.9 -0.4,-0.4 -0.9,-0.6 -1.4,-0.7 0.9,-0.6 2.2,-1 3.5,-1 m -3.7,5.7 v 0 c -0.8,-0.5 -1.6,-1 -1.9,-1.4 -0.6,-0.9 -0.6,-1.8 0,-2.3 0.3,-0.3 0.8,-0.5 1.4,-0.5 0.6,0 1.2,0.2 1.6,0.6 1.4,1.2 2.8,2 4.6,2.8 -1.3,0.7 -2.5,1.3 -3.9,2 -0.6,-0.4 -1.2,-0.8 -1.8,-1.2 m 2.1,2.5 c 0.2,0.2 0.3,0.5 0.3,0.8 0.1,0.6 -0.2,1.2 -0.8,1.9 -1.3,-0.2 -2.5,-0.3 -3.6,-0.6 1.4,-0.6 2.8,-1.4 4.1,-2.1 m -6.7,-2.8 c 0,0.1 0,0.3 0,0.3 v 0 c 0.1,1.3 -1.2,1.9 -3.2,2.7 -1.2,0.5 -2.6,1.1 -3.3,2 0,-1.7 -0.1,-3.5 -0.2,-5.1 2,-0.7 3.5,-1 4.7,-1 0.5,0 1,0.1 1.3,0.2 0.4,0.2 0.6,0.5 0.7,0.9 z m -36.8,0.5 c -0.1,-0.5 -0.1,-0.9 0.2,-1.4 1.3,-2 6.6,-4 13.5,-5 h 0.1 l 0.8,3.4 h -0.1 c -6.1,2.9 -10,4.3 -12.3,4.3 -0.5,0 -1,-0.1 -1.3,-0.2 -0.4,-0.3 -0.8,-0.6 -0.9,-1.1 m 19.3,3.5 c -8.2,4.2 -12.4,5.1 -14.4,5.1 -0.7,0 -1.2,-0.1 -1.7,-0.3 -0.5,-0.2 -0.9,-0.6 -1,-1.1 l -1.7,-5.7 c 0.1,0 0.1,0.1 0.2,0.1 0.4,0.2 0.9,0.3 1.6,0.3 3.5,0 9.8,-2.9 16.1,-6.1 8.5,-4.3 12.8,-5.2 14.9,-5.2 1,0 1.6,0.2 1.9,0.4 0.5,0.3 0.7,0.6 0.8,1.2 0.2,1.6 0.5,4.3 0.7,6 -0.1,-0.1 -0.2,-0.1 -0.2,-0.1 -0.4,-0.2 -0.9,-0.3 -1.6,-0.3 -3.8,0 -10.6,3.1 -15.6,5.7 m 11,2.7 c 0,-1.4 1.4,-2.2 2.9,-2.8 0.9,0.4 1.9,0.7 3,1 -1.9,0.9 -3.9,1.8 -5.8,2.6 -0.1,-0.2 -0.1,-0.5 -0.1,-0.8 m 9.3,6 c -4.1,-0.9 -7,-2.2 -8.4,-3.7 2.5,-1.1 4.9,-2.3 7.3,-3.5 1.2,0.3 2.6,0.5 4,0.7 -0.1,0.1 -0.2,0.2 -0.3,0.3 -2.6,2.4 -3.2,4.2 -2.6,6.2 m 1.9,2.2 -0.1,0.1 -0.1,-0.1 c -1.9,-3.3 -2,-4.9 1.4,-8.1 1.3,-1.2 1.9,-2.3 1.8,-3.3 0,-0.4 -0.2,-0.7 -0.4,-1 1.4,-0.7 2.7,-1.5 4,-2.2 0.9,0.7 1.4,1.5 1.4,2.3 0.1,1.6 -1.8,3.2 -3.5,4.6 -1.5,1.3 -2.8,2.4 -2.7,3.5 0.1,0.5 0.4,0.8 1,1.2 l 0.1,0.1 -0.1,0.1 c -1.4,0.6 -2.3,1.5 -2.8,2.8 m 10.3,-0.9 c -2.7,0 -5.7,-0.2 -8.4,-0.6 0.8,-0.6 1.6,-0.9 2.1,-1.1 l 0.8,-0.3 -0.8,-0.3 c -0.9,-0.3 -1.3,-0.7 -1.4,-1.1 -0.1,-0.7 1.1,-1.8 2.4,-2.9 v 0 c 0.4,-0.3 0.8,-0.7 1.2,-1 1.4,0.1 2.8,0.1 4.1,0.1 v 0 0 c 1.4,0 2.8,0 4.2,-0.1 0.4,0.4 0.8,0.7 1.2,1 v 0 c 1.3,1.1 2.5,2.2 2.4,2.9 -0.1,0.4 -0.5,0.7 -1.4,1.1 l -0.8,0.3 0.8,0.3 c 0.5,0.2 1.4,0.5 2.1,1.1 -2.7,0.4 -5.7,0.6 -8.5,0.6 m 10.6,0.9 -0.1,0.1 -0.1,-0.1 c -0.5,-1.3 -1.5,-2.2 -2.9,-2.9 l -0.1,-0.1 0.1,-0.1 c 0.6,-0.3 0.9,-0.7 1,-1.2 0.2,-1.1 -1.1,-2.2 -2.7,-3.5 -0.4,-0.4 -0.9,-0.8 -1.3,-1.2 v 0 0 c -1.2,-1.1 -2.1,-2.2 -2.1,-3.4 0,-0.8 0.5,-1.5 1.4,-2.2 1.3,0.8 2.7,1.5 4,2.3 -0.2,0.3 -0.3,0.6 -0.3,1 -0.1,1 0.5,2.1 1.8,3.3 3.3,3.1 3.2,4.7 1.3,8 m 8.2,-4.5 c -1.6,0.9 -3.7,1.7 -6.5,2.3 0.6,-2.1 0,-3.8 -2.7,-6.3 -0.1,-0.1 -0.2,-0.2 -0.3,-0.3 1.4,-0.2 2.7,-0.4 3.9,-0.7 2.4,1.2 4.8,2.4 7.3,3.5 -0.4,0.6 -0.9,1 -1.7,1.5 m -3.2,-5.5 c 1.1,-0.3 2.1,-0.6 3,-1 1.5,0.6 2.8,1.3 2.9,2.5 v 0.2 0 0 c 0,0 0,0.1 0,0.1 0,0.3 0,0.6 -0.1,0.8 -1.9,-0.8 -3.9,-1.7 -5.8,-2.6 m 34,2.8 c -0.1,0.5 -0.5,0.8 -1,1.1 -0.4,0.2 -1,0.3 -1.7,0.3 -2.1,0 -6.2,-0.9 -14.4,-5.1 -5,-2.6 -11.8,-5.7 -15.5,-5.7 -0.7,0 -1.2,0.1 -1.6,0.3 -0.1,0 -0.2,0.1 -0.2,0.1 0.2,-2.1 0.5,-4.6 0.7,-6 0.1,-0.5 0.3,-0.9 0.8,-1.2 0.3,-0.2 0.9,-0.4 1.9,-0.4 2.1,0 6.4,0.9 14.9,5.2 6.3,3.2 12.6,6.1 16.1,6.1 0.6,0 1.2,-0.1 1.6,-0.3 0.1,0 0.1,-0.1 0.2,-0.1 z m 2.2,-7.2 c -0.1,0.5 -0.5,0.8 -0.9,1.1 -0.4,0.1 -0.8,0.2 -1.3,0.2 -2.3,0 -6.2,-1.4 -12.3,-4.3 h -0.1 l 0.8,-3.4 h 0.1 c 6.9,1 12.2,3 13.5,5 0.3,0.4 0.4,0.9 0.2,1.4"
   id="path40" />
</g>
</svg>
